<?xml version="1.0" encoding="utf-8"?>
<!-- Generator: Adobe Illustrator 16.0.0, SVG Export Plug-In . SVG Version: 6.00 Build 0)  -->
<!DOCTYPE svg PUBLIC "-//W3C//DTD SVG 1.1//EN" "http://www.w3.org/Graphics/SVG/1.1/DTD/svg11.dtd">
<svg version="1.1" id="Layer_1" xmlns="http://www.w3.org/2000/svg" xmlns:xlink="http://www.w3.org/1999/xlink" x="0px" y="0px"
	 width="500px" height="500px" viewBox="0 0 500 500" enable-background="new 0 0 500 500" xml:space="preserve">
<g id="Layer_1_copy_23">
	<g>
		<path fill="#2C2010" d="M331.82,385.895c-1.51,0-2.954-0.857-3.624-2.316c-0.929-2.004-0.055-4.372,1.945-5.291
			c66.186-30.573,93.228-108.797,93.486-109.578c0.709-2.088,2.981-3.218,5.058-2.509c2.089,0.704,3.211,2.964,2.506,5.048
			c-1.122,3.345-28.344,82.238-97.704,114.275C332.947,385.771,332.38,385.895,331.82,385.895z"/>
	</g>
	<g>
		<path fill="#6AB1E2" d="M34.469,192.531c0,0-0.725,160.458,126.776,219.867c105.771,44.911,191.979-5.074,191.979-5.074
			s105.771-42.738,120.979-211.536L265.57,166.812L34.469,192.531z"/>
		<path fill="#3C2517" d="M251.988,435.116c0,0-0.004,0-0.012,0c-31.484-0.005-62.535-6.41-92.288-19.042
			c-37.193-17.329-86.938-54.695-113.433-134.635c-15.78-47.614-15.784-87.265-15.773-88.931c0.009-2.023,1.533-3.721,3.548-3.947
			l231.094-25.715c0.338-0.038,0.66-0.03,0.993,0.015l208.636,28.972c2.11,0.299,3.615,2.192,3.429,4.314
			c-7.958,88.28-40.934,141.915-67.191,171.364c-27.451,30.78-52.956,42.118-56.006,43.4
			C351.18,413.07,310.845,435.116,251.988,435.116z M38.549,196.09c0.912,23.735,11.122,159.917,124.386,212.696
			c28.636,12.153,58.638,18.349,89.043,18.349c58.321,0.003,98.846-23.033,99.247-23.264c0.157-0.094,0.333-0.178,0.503-0.241
			c1.021-0.417,102.127-43.385,118.147-204.417l-204.362-28.382L38.549,196.09z"/>
	</g>
	<g>
		<path fill="#3487B2" d="M474.205,192.531c0,35.408-98.428,64.109-219.868,64.109c-121.428,0-219.868-28.702-219.868-64.109
			c0-35.412,98.44-64.116,219.868-64.116C375.777,128.415,474.205,157.119,474.205,192.531z"/>
		<path fill="#3C2517" d="M254.337,260.627c-125.527,0-223.854-29.914-223.854-68.096c0-38.19,98.326-68.104,223.854-68.104
			c125.528,0,223.861,29.915,223.861,68.104C478.198,230.714,379.865,260.627,254.337,260.627z M254.337,132.403
			c-129.129,0-215.876,31.091-215.876,60.128c0,29.034,86.747,60.121,215.876,60.121c129.137,0,215.881-31.087,215.881-60.121
			C470.218,163.494,383.474,132.403,254.337,132.403z"/>
	</g>
	<g>
		<path fill="#F1E8AD" d="M470.569,192.527c4.531,29.857-97.245,60.917-216.232,60.917c-118.976,0-215.233-26.021-215.233-61.435
			c0,0,18.438-20.681,37.049-19.792c18.62,0.885,77.568-6.207,89.98-7.536c12.414-1.329,37.237-8.425,57.623-4.877
			c20.391,3.548,50.531-2.655,84.659,0.889c34.129,3.544,59.837-3.104,83.33,2.214c23.493,5.318,50.53,10.199,57.622,13.743
			S469.179,183.359,470.569,192.527z"/>
	</g>
	<g>
		<path fill="#3C2517" d="M331.82,385.895c-1.51,0-2.954-0.857-3.624-2.316c-0.929-2.004-0.055-4.372,1.945-5.291
			c66.186-30.573,93.228-108.797,93.486-109.578c0.709-2.088,2.981-3.218,5.058-2.509c2.089,0.704,3.211,2.964,2.506,5.048
			c-1.122,3.345-28.344,82.238-97.704,114.275C332.947,385.771,332.38,385.895,331.82,385.895z"/>
	</g>
	<g>
		<path fill="#975824" d="M122.694,189.504c-1.325-0.069-17.286-1.49-9.75,3.023c7.536,4.51,2.662,4.065,9.75,1.851
			C129.786,192.164,124.979,189.624,122.694,189.504z"/>
	</g>
	<g>
		<path fill="#CE8B41" d="M224.645,220.085c0,0-18.175-8.865-16.405,0c1.777,8.866,4.438,9.31,11.528,7.536
			C226.859,225.848,229.074,225.408,224.645,220.085z"/>
	</g>
	<g>
		<path fill="#CE8B41" d="M357.172,175.321c0,0-27.037-4.873-27.478,0c-0.448,4.873,8.417,7.092,13.738,6.647
			C348.75,181.528,361.16,178.869,357.172,175.321z"/>
	</g>
	<g>
		<path fill="#9E6026" d="M370.025,219.205c0,0-12.854-9.31-10.194,0c2.662,9.306,9.31,11.524,10.194,7.532
			C370.915,222.745,370.025,219.205,370.025,219.205z"/>
	</g>
	<g>
		<path fill="#1F1D10" d="M152.835,182.187c0,1.349-0.991,2.441-2.214,2.441c-1.226,0-2.219-1.092-2.219-2.441
			c0-1.345,0.993-2.436,2.219-2.436C151.844,179.75,152.835,180.842,152.835,182.187z"/>
	</g>
	<g opacity="0.61">
		<g>
			<path fill="#E2D17A" d="M123.14,182.026c0,0-20.222-5.329-35.818,4.621c-15.598,9.95-23.409,17.191,0,28.42
				c23.404,11.226,122.446,33.83,120.8,28.957c-1.651-4.873,54.637,2.521,53.312-4.061c-1.332-6.578-6.061-8.501-40.489-12.636
				c-34.42-4.138-28.657,2.613-58.798-11.18c-30.141-13.792-56.292,1.433-47.871-12.605
				C122.694,189.504,139.093,190.056,123.14,182.026z"/>
		</g>
	</g>
	<g>
		<path fill="#1F1D10" d="M97.792,208.791c0,1.433-1.058,2.594-2.353,2.594c-1.307,0-2.36-1.161-2.36-2.594
			c0-1.429,1.054-2.59,2.36-2.59C96.734,206.201,97.792,207.362,97.792,208.791z"/>
	</g>
	<g>
		<ellipse fill="#1F1D10" cx="249.463" cy="189.236" rx="2.357" ry="2.59"/>
	</g>
	<g>
		<path fill="#1F1D10" d="M239.852,237.372c0,1.434-1.054,2.59-2.354,2.59c-1.307,0-2.355-1.157-2.355-2.59s1.049-2.589,2.355-2.589
			C238.798,234.783,239.852,235.939,239.852,237.372z"/>
	</g>
	<g>
		<ellipse fill="#1F1D10" cx="334.172" cy="206.132" rx="2.356" ry="2.59"/>
	</g>
	<g>
		<path fill="#1F1D10" d="M402.825,186.646c0,1.433-1.054,2.59-2.354,2.59c-1.303,0-2.355-1.157-2.355-2.59s1.054-2.59,2.355-2.59
			C401.771,184.056,402.825,185.214,402.825,186.646z"/>
	</g>
	<g>
		<path fill="#C97329" d="M222.427,177.589c-2.218-0.498-6.203-6.149-9.307,0c-3.104,6.153,16.842,10.773,15.954,6.467
			C228.185,179.75,222.427,177.589,222.427,177.589z"/>
	</g>
	<g opacity="0.44">
		<g>
			<path fill="#E2D17A" d="M380.344,165.084c0,0-25.709,0.528-19.502,8.509c6.203,7.98,24.819,2.406,17.287,8.739
				c-7.532,6.329-5.444,17.854-30.646,16.524c-25.203-1.33-26.978,2.368-54.46,2.958c-27.477,0.59-63.384,2.555-57.177,9.107
				c6.203,6.551,27.038,9.631,61.167,9.203c34.128-0.433,89.096-5.433,101.505-13.129c12.408-7.697,2.653-19.551-4.878-26.7
				C386.109,173.149,384.761,164.839,380.344,165.084z"/>
		</g>
	</g>
	<g opacity="0.3">
		<path fill="#E2D17A" d="M210.017,166.812c0,0-50.128,2.41-43.017,10.777c7.11,8.368,7.11,12.827,28.389,15.03
			c21.275,2.203,29.696,0.571,42.106,3.383c12.413,2.812,13.294,1.395-12.41-6.766c-25.712-8.153-42.109-5.494-31.915-9.486
			C203.366,175.762,221.542,171.16,210.017,166.812z"/>
	</g>
</g>
</svg>
