<?xml version="1.0" encoding="utf-8"?>
<!-- Generator: Adobe Illustrator 16.0.0, SVG Export Plug-In . SVG Version: 6.00 Build 0)  -->
<!DOCTYPE svg PUBLIC "-//W3C//DTD SVG 1.1//EN" "http://www.w3.org/Graphics/SVG/1.1/DTD/svg11.dtd">
<svg version="1.1" id="Layer_1" xmlns="http://www.w3.org/2000/svg" xmlns:xlink="http://www.w3.org/1999/xlink" x="0px" y="0px"
	 width="500px" height="500px" viewBox="0 0 500 500" enable-background="new 0 0 500 500" xml:space="preserve">
<g id="Layer_1_copy_100">
	<g>
		<g>
			<path fill="#4E4E4E" d="M455.582,259.852c0,51.469-94.801,93.2-211.753,93.2c-116.974,0-211.771-41.731-211.771-93.2
				c0-51.497,94.797-93.24,211.771-93.24C360.781,166.612,455.582,208.355,455.582,259.852z"/>
			<path fill="#3C2517" d="M243.829,355.666c-118.213,0-214.385-42.979-214.385-95.812c0-26.005,22.58-50.271,63.582-68.326
				C133.342,173.779,186.9,164,243.829,164c56.918,0,110.468,9.78,150.789,27.532c40.999,18.05,63.578,42.316,63.578,68.321
				C458.196,312.686,362.032,355.666,243.829,355.666z M243.829,169.226c-115.332,0-209.16,40.656-209.16,90.625
				c0,49.948,93.828,90.59,209.16,90.59c115.322,0,209.139-40.642,209.139-90.59C452.968,209.882,359.151,169.226,243.829,169.226z"
				/>
		</g>
		<g>
			<path fill="#818181" d="M226.457,128.804c81.574-3.885,154.137,13.238,201.909,47.322c26.946,19.24,58.45,58.064,38.63,104.356
				c-3.755,8.766-8.78,18.442-15.454,26.074c-63.206,72.264-241.165,88.09-346.808,42.495
				c-36.271-15.646-66.711-36.522-80.175-66.645c-23.854-53.4,18.291-94.51,51.197-114.006c25.1-14.859,56.205-26.975,91.755-33.806
				C185.428,131.154,205.904,129.776,226.457,128.804z M168.481,173.232c-35.505,7.11-65.403,18.321-89.825,37.684
				c-9.438,7.487-24.187,24.548-24.147,40.595c0.042,18.894,14.729,32.074,27.043,41.519
				c63.86,48.998,195.724,58.259,283.065,25.121c26.729-10.146,72.435-33.119,72.435-66.64c0-19.321-15.42-34.02-29.938-44.461
				c-44.323-31.855-109.658-43.915-179.689-40.583C205.874,167.498,186.875,169.547,168.481,173.232z"/>
			<path fill="#3C2517" d="M245.004,377.309c-52.486,0-102.666-9.182-141.305-25.859c-42.632-18.387-69.298-40.618-81.524-67.971
				c-11.01-24.652-9.509-48.921,4.457-72.135c13.733-22.82,35.841-38.111,47.792-45.193c26.724-15.822,58.743-27.62,92.596-34.119
				c18.366-3.529,39.361-4.896,59.312-5.843c7.586-0.362,15.222-0.542,22.689-0.542c72.929,0,137.159,17.172,180.863,48.349
				c31.674,22.617,58.688,62.743,39.517,107.516c-4.861,11.346-10.061,20.098-15.895,26.768
				C416.265,350.855,336.37,377.309,245.004,377.309z M249.021,130.875c-7.388,0-14.936,0.176-22.438,0.535
				c-19.76,0.938-40.534,2.286-58.579,5.754c-33.269,6.388-64.708,17.966-90.914,33.485C4.018,213.934,20.236,266.32,26.948,281.344
				c11.662,26.104,37.447,47.461,78.819,65.307c38.004,16.399,87.448,25.432,139.235,25.432c89.904,0,168.289-25.766,204.567-67.245
				c5.469-6.248,10.381-14.551,15.023-25.381c17.95-41.927-7.731-79.766-37.749-101.2
				C384.021,147.7,320.869,130.875,249.021,130.875z M247.011,340.352c-0.008,0-0.012,0-0.019,0
				c-67.663-0.004-130.107-16.918-167.026-45.25c-13.856-10.625-28.025-24.109-28.07-43.588
				c-0.039-17.927,16.423-35.736,25.135-42.644c23.011-18.248,51.905-30.387,90.94-38.202c17.804-3.563,36.655-5.727,59.325-6.807
				c7.515-0.359,15.033-0.542,22.352-0.542c66.139,0,121.116,14.391,158.99,41.61c20.878,15.008,31.028,30.245,31.028,46.583
				c0,36.961-51.838,60.623-74.126,69.079C331.478,333.516,290.486,340.352,247.011,340.352z M249.647,168.547
				c-7.235,0-14.673,0.179-22.102,0.533c-22.403,1.069-41.008,3.203-58.55,6.713c-38.19,7.647-66.379,19.458-88.715,37.171
				c-9.327,7.396-23.19,23.767-23.158,38.54c0.038,17.208,13.177,29.6,26.021,39.449c36.041,27.652,97.295,44.166,163.848,44.17
				c0.007,0,0.016,0,0.019,0c42.239,0,83.678-6.896,116.68-19.416c21.27-8.075,70.748-30.49,70.748-64.196
				c0-14.532-9.438-28.38-28.854-42.339C368.607,182.594,314.688,168.547,249.647,168.547z"/>
		</g>
	</g>
	<g>
		<path fill="#FAFAEE" d="M39.188,257.938c0,0-9.468-15.958,0-17.329c9.463-1.371,33.702-25.026,43.067-26.846
			c9.368-1.824,49.191-20.408,68.062-26.063c18.87-5.66,34.325-16.004,61.923-11.467c27.602,4.538,50.08-0.488,77.297,2.828
			c27.213,3.32,15.719-1.034,31.329,3.43c15.611,4.473,31.356,9.201,41.809,11.468c10.452,2.266,10.448,1.176,28.154,9.372
			c17.717,8.197,48.845,35.829,50.472,35.45c1.629-0.385-17.68,14.229-16.299,16.091c1.377,1.862-7.559,4.577-21.651,11.717
			c-14.093,7.144-19.329,9.481-26.995,14.126c-7.671,4.648-18.992,8.225-33.685,10.906c-14.688,2.688-35.48,10.562-54.983,8.834
			c-19.508-1.725-38.852,0.535-44.271,1.58c-5.419,1.049-36.312-3.809-36.312-3.809l-47.727-2.34l-47.273-6.703l-44.261-22.942
			L39.188,257.938z"/>
	</g>
	<g>
		<path fill="#B7B67B" d="M110.569,263.954c-6.143,5.235-12.765,7.549-14.798,5.173c-2.026-2.386,1.305-8.552,7.444-13.796
			c6.136-5.236,12.76-7.548,14.79-5.17C120.036,252.542,116.71,258.712,110.569,263.954z"/>
	</g>
	<g>
		<path fill="#B7B67B" d="M108.968,297.117c-7.82-1.989-13.536-6.053-12.766-9.09c0.771-3.027,7.727-3.883,15.558-1.897
			c7.819,1.985,13.531,6.056,12.765,9.086C123.754,298.25,116.792,299.1,108.968,297.117z"/>
	</g>
	<g>
		
			<ellipse transform="matrix(0.9806 -0.1961 0.1961 0.9806 -52.9466 23.741)" fill="#B7B67B" cx="93.407" cy="279.225" rx="14.612" ry="5.664"/>
	</g>
	<g>
		<path fill="#F2F2C4" d="M100.616,260.197c-4.925,6.392-10.933,10.021-13.409,8.107c-2.476-1.912-0.491-8.64,4.438-15.027
			c4.928-6.392,10.933-10.021,13.406-8.112C107.531,247.076,105.548,253.809,100.616,260.197z"/>
	</g>
	<g>
		<path fill="#F2F2C4" d="M110.084,276.285c-7.456-3.084-12.531-7.934-11.337-10.823c1.194-2.888,8.208-2.735,15.669,0.353
			c7.452,3.084,12.528,7.93,11.333,10.818C124.555,279.52,117.537,279.368,110.084,276.285z"/>
	</g>
	<g>
		<path fill="#F2F2C4" d="M86.846,272.531c-7.461-3.084-12.532-7.932-11.339-10.819c1.198-2.89,8.21-2.731,15.666,0.351
			c7.46,3.08,12.531,7.932,11.337,10.819C101.315,275.773,94.302,275.621,86.846,272.531z"/>
	</g>
	<g>
		<path fill="#F2F2C4" d="M103.485,290.385c-4.929,6.391-10.936,10.021-13.409,8.109c-2.476-1.913-0.491-8.637,4.435-15.027
			c4.932-6.389,10.935-10.021,13.41-8.109C110.397,277.27,108.41,283.997,103.485,290.385z"/>
	</g>
	<g>
		<path fill="#D8D6AA" d="M97.381,262.395c-8.059-0.379-14.479-3.222-14.328-6.344c0.144-3.129,6.799-5.353,14.862-4.975
			c8.056,0.377,14.475,3.22,14.325,6.345C112.096,260.543,105.441,262.771,97.381,262.395z"/>
	</g>
	<g>
		<path fill="#D8D6AA" d="M115.05,272.014c-8.064-0.382-14.479-3.225-14.329-6.347c0.144-3.124,6.796-5.353,14.863-4.976
			c8.059,0.377,14.471,3.221,14.325,6.343C129.759,270.161,123.108,272.391,115.05,272.014z"/>
	</g>
	<g>
		<path fill="#D8D6AA" d="M112.103,289.184c-7.49-3.008-12.615-7.802-11.448-10.705c1.169-2.903,8.182-2.819,15.673,0.195
			c7.483,3.002,12.608,7.795,11.444,10.7C126.604,292.281,119.591,292.199,112.103,289.184z"/>
	</g>
	<g>
		
			<ellipse transform="matrix(-0.3422 -0.9396 0.9396 -0.3422 -131.9697 421.9532)" fill="#FAFAEE" cx="81.709" cy="257.169" rx="14.61" ry="5.665"/>
	</g>
	<g>
		<path fill="#FAFAEE" d="M126.842,262.962c2.754,7.583,2.613,14.601-0.325,15.669c-2.942,1.068-7.564-4.205-10.327-11.795
			c-2.754-7.578-2.613-14.598,0.329-15.662C119.457,250.103,124.079,255.379,126.842,262.962z"/>
	</g>
	<g>
		<path fill="#B7B67B" d="M104.545,219.159c-6.146,5.235-12.766,7.552-14.795,5.17c-2.03-2.381,1.296-8.551,7.439-13.794
			c6.137-5.232,12.761-7.549,14.791-5.171C114.011,207.745,110.685,213.919,104.545,219.159z"/>
	</g>
	<g>
		<path fill="#B7B67B" d="M102.945,252.32c-7.827-1.988-13.539-6.052-12.773-9.089c0.771-3.03,7.735-3.882,15.559-1.894
			c7.823,1.984,13.535,6.052,12.769,9.083C117.729,253.454,110.764,254.3,102.945,252.32z"/>
	</g>
	<g>
		<path fill="#B7B67B" d="M88.502,239.995c-7.915,1.58-14.826,0.374-15.44-2.695c-0.611-3.068,5.301-6.834,13.223-8.418
			c7.907-1.58,14.816-0.373,15.437,2.691C102.33,234.64,96.416,238.411,88.502,239.995z"/>
	</g>
	<g>
		<path fill="#F2F2C4" d="M94.591,215.4c-4.926,6.392-10.933,10.021-13.409,8.113c-2.474-1.913-0.491-8.64,4.438-15.032
			c4.928-6.387,10.928-10.021,13.406-8.108C101.507,202.28,99.518,209.008,94.591,215.4z"/>
	</g>
	<g>
		<path fill="#F2F2C4" d="M104.059,231.488c-7.46-3.083-12.531-7.93-11.34-10.818c1.196-2.893,8.211-2.736,15.669,0.347
			c7.455,3.083,12.531,7.929,11.335,10.818C118.529,234.728,111.515,234.571,104.059,231.488z"/>
	</g>
	<g>
		<path fill="#F2F2C4" d="M80.82,227.737c-7.458-3.083-12.536-7.93-11.338-10.823c1.194-2.888,8.209-2.735,15.665,0.355
			c7.456,3.079,12.535,7.925,11.337,10.814C95.286,230.973,88.272,230.82,80.82,227.737z"/>
	</g>
	<g>
		<path fill="#F2F2C4" d="M97.457,245.588c-4.927,6.393-10.93,10.023-13.41,8.113c-2.476-1.912-0.491-8.64,4.443-15.028
			c4.923-6.392,10.93-10.021,13.401-8.113C104.372,232.473,102.388,239.205,97.457,245.588z"/>
	</g>
	<g>
		<path fill="#D8D6AA" d="M91.355,217.602c-8.063-0.382-14.474-3.221-14.328-6.346c0.144-3.125,6.8-5.354,14.858-4.976
			c8.063,0.381,14.475,3.221,14.328,6.342C106.066,215.751,99.415,217.98,91.355,217.602z"/>
	</g>
	<g>
		<path fill="#D8D6AA" d="M109.024,227.218c-8.064-0.382-14.479-3.221-14.33-6.35c0.146-3.122,6.797-5.35,14.86-4.968
			c8.059,0.378,14.473,3.217,14.325,6.342C123.734,225.367,117.083,227.596,109.024,227.218z"/>
	</g>
	<g>
		<path fill="#FAFAEE" d="M120.812,218.167c2.763,7.583,2.613,14.601-0.324,15.668c-2.938,1.068-7.561-4.209-10.323-11.795
			c-2.759-7.578-2.613-14.592,0.325-15.661C113.429,205.307,118.054,210.584,120.812,218.167z"/>
	</g>
	<g>
		<path fill="#B7B67B" d="M142.284,222.841c-6.144,5.239-12.766,7.556-14.794,5.175c-2.03-2.382,1.296-8.552,7.44-13.795
			c6.136-5.232,12.76-7.547,14.79-5.17C151.752,211.431,148.425,217.605,142.284,222.841z"/>
	</g>
	<g>
		
			<ellipse transform="matrix(0.9692 0.2461 -0.2461 0.9692 66.0202 -27.2562)" fill="#B7B67B" cx="142.06" cy="250.513" rx="14.614" ry="5.665"/>
	</g>
	<g>
		<path fill="#F2F2C4" d="M132.331,219.086c-4.93,6.392-10.933,10.021-13.409,8.109c-2.477-1.908-0.491-8.636,4.438-15.028
			c4.928-6.388,10.929-10.021,13.406-8.109C139.246,205.967,137.258,212.699,132.331,219.086z"/>
	</g>
	<g>
		<path fill="#F2F2C4" d="M141.799,235.174c-7.46-3.083-12.531-7.934-11.337-10.822c1.194-2.889,8.209-2.736,15.664,0.355
			c7.458,3.079,12.533,7.925,11.338,10.814C156.27,238.411,149.257,238.257,141.799,235.174z"/>
	</g>
	<g>
		<path fill="#F2F2C4" d="M118.561,231.423c-7.458-3.083-12.532-7.934-11.339-10.822c1.195-2.889,8.208-2.732,15.666,0.351
			c7.456,3.083,12.535,7.929,11.337,10.818C133.026,234.664,126.017,234.507,118.561,231.423z"/>
	</g>
	<g>
		<path fill="#F2F2C4" d="M135.197,249.278c-4.926,6.387-10.932,10.021-13.405,8.106c-2.477-1.909-0.492-8.636,4.434-15.028
			c4.928-6.387,10.935-10.017,13.406-8.108C142.112,236.159,140.128,242.887,135.197,249.278z"/>
	</g>
	<g>
		
			<ellipse transform="matrix(0.9989 0.0469 -0.0469 0.9989 10.256 -5.8302)" fill="#D8D6AA" cx="129.362" cy="215.628" rx="14.611" ry="5.663"/>
	</g>
	<g>
		<path fill="#D8D6AA" d="M146.765,230.905c-8.064-0.382-14.479-3.222-14.334-6.346c0.148-3.125,6.801-5.354,14.864-4.976
			c8.061,0.381,14.475,3.221,14.329,6.345C161.475,229.053,154.823,231.282,146.765,230.905z"/>
	</g>
	<g>
		<path fill="#D8D6AA" d="M143.818,248.077c-7.492-3.007-12.612-7.8-11.449-10.708c1.169-2.899,8.182-2.816,15.673,0.195
			c7.483,3.007,12.608,7.8,11.444,10.7C158.319,251.167,151.302,251.087,143.818,248.077z"/>
	</g>
	<g>
		
			<ellipse transform="matrix(-0.3422 -0.9396 0.9396 -0.3422 -50.7827 396.5696)" fill="#FAFAEE" cx="113.422" cy="216.061" rx="14.612" ry="5.665"/>
	</g>
	<g>
		<path fill="#FAFAEE" d="M137.754,227.012c2.763,7.583,2.615,14.601-0.327,15.669c-2.936,1.072-7.561-4.209-10.319-11.792
			c-2.758-7.583-2.614-14.596,0.325-15.668C130.375,214.152,134.991,219.429,137.754,227.012z"/>
	</g>
	<g>
		<path fill="#FAFAEE" d="M158.553,221.853c2.762,7.586,2.617,14.6-0.321,15.672c-2.942,1.064-7.564-4.213-10.327-11.795
			c-2.758-7.583-2.613-14.597,0.325-15.665C151.172,208.993,155.792,214.27,158.553,221.853z"/>
	</g>
	<g>
		<path fill="#B7B67B" d="M155.438,271.495c-6.14,5.235-12.761,7.557-14.794,5.172c-2.027-2.381,1.302-8.552,7.445-13.795
			c6.132-5.231,12.76-7.549,14.791-5.171C164.905,260.082,161.578,266.256,155.438,271.495z"/>
	</g>
	<g>
		<path fill="#B7B67B" d="M153.839,304.657c-7.824-1.984-13.539-6.054-12.768-9.087s7.73-3.881,15.558-1.896
			c7.819,1.985,13.535,6.057,12.768,9.082C168.625,305.79,161.661,306.643,153.839,304.657z"/>
	</g>
	<g>
		<path fill="#B7B67B" d="M139.399,292.331c-7.918,1.58-14.826,0.375-15.443-2.69c-0.611-3.066,5.305-6.836,13.223-8.418
			c7.91-1.587,14.82-0.377,15.436,2.69C153.228,286.98,147.311,290.748,139.399,292.331z"/>
	</g>
	<g>
		<path fill="#F2F2C4" d="M145.489,267.736c-4.931,6.396-10.937,10.021-13.409,8.113c-2.478-1.912-0.492-8.641,4.435-15.035
			c4.93-6.385,10.933-10.014,13.409-8.104C152.4,254.617,150.416,261.348,145.489,267.736z"/>
	</g>
	<g>
		<path fill="#F2F2C4" d="M154.953,283.825c-7.457-3.083-12.531-7.931-11.338-10.818c1.199-2.889,8.209-2.735,15.669,0.349
			c7.453,3.082,12.531,7.934,11.338,10.817C169.423,287.064,162.409,286.912,154.953,283.825z"/>
	</g>
	<g>
		<path fill="#F2F2C4" d="M131.718,280.075c-7.461-3.085-12.536-7.931-11.342-10.823c1.198-2.885,8.212-2.732,15.669,0.354
			c7.456,3.082,12.532,7.928,11.337,10.814C146.185,283.312,139.17,283.158,131.718,280.075z"/>
	</g>
	<g>
		<path fill="#F2F2C4" d="M139.17,291.087c-4.927,6.392-10.929,10.021-13.41,8.108c-2.476-1.913-0.487-8.641,4.438-15.027
			c4.928-6.393,10.933-10.023,13.41-8.113C146.085,277.966,144.101,284.7,139.17,291.087z"/>
	</g>
	<g>
		<path fill="#D8D6AA" d="M142.253,269.938c-8.062-0.377-14.477-3.224-14.333-6.346c0.146-3.125,6.805-5.354,14.863-4.977
			c8.061,0.386,14.475,3.221,14.33,6.348C156.965,268.092,150.312,270.316,142.253,269.938z"/>
	</g>
	<g>
		
			<ellipse transform="matrix(0.9989 0.047 -0.047 0.9989 13.046 -7.2238)" fill="#D8D6AA" cx="160.179" cy="273.89" rx="14.611" ry="5.664"/>
	</g>
	<g>
		<path fill="#D8D6AA" d="M156.972,296.73c-7.487-3.01-12.612-7.807-11.448-10.707c1.168-2.903,8.182-2.82,15.673,0.19
			c7.486,3.007,12.611,7.8,11.444,10.703C171.477,299.823,164.46,299.734,156.972,296.73z"/>
	</g>
	<g>
		<path fill="#FAFAEE" d="M159.376,295.887c2.763,7.584,2.617,14.6-0.321,15.67c-2.938,1.067-7.562-4.209-10.321-11.793
			c-2.76-7.582-2.614-14.6,0.323-15.668C151.995,283.027,156.62,288.305,159.376,295.887z"/>
	</g>
	<g>
		<path fill="#FAFAEE" d="M171.708,270.504c2.761,7.581,2.615,14.6-0.322,15.667c-2.942,1.067-7.561-4.209-10.323-11.791
			c-2.758-7.583-2.614-14.601,0.325-15.668C164.325,257.645,168.95,262.921,171.708,270.504z"/>
	</g>
	<g>
		<path fill="#B7B67B" d="M133.004,197.221c-6.14,5.235-12.761,7.552-14.791,5.174c-2.03-2.382,1.298-8.555,7.438-13.795
			c6.14-5.235,12.765-7.552,14.794-5.174C142.475,185.811,139.144,191.984,133.004,197.221z"/>
	</g>
	<g>
		<path fill="#B7B67B" d="M131.405,230.382c-7.819-1.984-13.54-6.053-12.769-9.086c0.77-3.03,7.73-3.881,15.562-1.901
			c7.814,1.988,13.531,6.056,12.765,9.09C146.191,231.516,139.231,232.37,131.405,230.382z"/>
	</g>
	<g>
		<path fill="#B7B67B" d="M116.965,218.056c-7.915,1.58-14.829,0.377-15.439-2.69c-0.611-3.068,5.301-6.835,13.222-8.423
			c7.907-1.58,14.818-0.374,15.433,2.695C130.794,212.706,124.88,216.472,116.965,218.056z"/>
	</g>
	<g>
		<path fill="#F2F2C4" d="M123.056,193.461c-4.931,6.393-10.935,10.021-13.41,8.109c-2.477-1.908-0.492-8.636,4.438-15.027
			c4.927-6.392,10.93-10.021,13.406-8.109C129.97,180.346,127.981,187.074,123.056,193.461z"/>
	</g>
	<g>
		<path fill="#F2F2C4" d="M132.52,209.55c-7.454-3.083-12.532-7.933-11.338-10.822c1.199-2.888,8.212-2.732,15.669,0.355
			c7.456,3.083,12.531,7.926,11.338,10.818C146.989,212.79,139.975,212.638,132.52,209.55z"/>
	</g>
	<g>
		<path fill="#F2F2C4" d="M109.283,205.799c-7.46-3.083-12.535-7.93-11.337-10.818c1.193-2.893,8.208-2.736,15.664,0.347
			s12.532,7.93,11.338,10.822C123.75,209.039,116.735,208.887,109.283,205.799z"/>
	</g>
	<g>
		<path fill="#F2F2C4" d="M125.921,223.654c-4.927,6.392-10.933,10.021-13.409,8.109c-2.478-1.909-0.493-8.636,4.438-15.031
			c4.927-6.385,10.934-10.018,13.41-8.109C132.836,210.535,130.848,217.262,125.921,223.654z"/>
	</g>
	<g>
		<path fill="#D8D6AA" d="M119.818,195.66c-8.062-0.378-14.477-3.218-14.332-6.343c0.148-3.125,6.801-5.35,14.864-4.972
			c8.059,0.377,14.473,3.221,14.329,6.341C134.529,193.812,127.879,196.042,119.818,195.66z"/>
	</g>
	<g>
		<path fill="#D8D6AA" d="M137.483,205.276c-8.059-0.374-14.475-3.221-14.329-6.342c0.149-3.125,6.8-5.354,14.863-4.973
			c8.056,0.378,14.475,3.221,14.325,6.346C152.197,203.43,145.542,205.658,137.483,205.276z"/>
	</g>
	<g>
		<path fill="#D8D6AA" d="M134.537,222.452c-7.486-3.007-12.606-7.804-11.444-10.708c1.164-2.896,8.183-2.812,15.673,0.195
			c7.482,3.006,12.608,7.799,11.444,10.704C149.043,225.547,142.028,225.463,134.537,222.452z"/>
	</g>
	<g>
		<path fill="#FAFAEE" d="M106.681,195.518c-7.216,3.61-14.198,4.267-15.604,1.47c-1.396-2.797,3.315-7.991,10.535-11.601
			c7.216-3.613,14.2-4.27,15.601-1.473C118.612,186.711,113.896,191.905,106.681,195.518z"/>
	</g>
	<g>
		<path fill="#FAFAEE" d="M156.574,198.667c2.765,7.582,2.618,14.596-0.324,15.668c-2.937,1.068-7.559-4.209-10.321-11.791
			c-2.76-7.586-2.613-14.6,0.325-15.669C149.195,185.803,153.816,191.081,156.574,198.667z"/>
	</g>
	<g>
		<path fill="#B7B67B" d="M179.203,190.958c-6.14,5.24-12.761,7.556-14.794,5.171c-2.026-2.378,1.302-8.548,7.445-13.791
			c6.137-5.236,12.761-7.548,14.791-5.171C188.672,179.548,185.344,185.723,179.203,190.958z"/>
	</g>
	<g>
		<path fill="#B7B67B" d="M177.604,224.124c-7.822-1.988-13.539-6.053-12.768-9.09c0.771-3.03,7.731-3.881,15.558-1.893
			c7.824,1.984,13.536,6.052,12.768,9.082C192.392,225.252,185.428,226.104,177.604,224.124z"/>
	</g>
	<g>
		<path fill="#B7B67B" d="M149.474,213.554c-7.915,1.575-14.825,0.373-15.439-2.695c-0.614-3.068,5.305-6.838,13.222-8.418
			c7.908-1.583,14.818-0.377,15.437,2.69C163.298,208.199,157.389,211.969,149.474,213.554z"/>
	</g>
	<g>
		<path fill="#F2F2C4" d="M169.256,187.204c-4.931,6.392-10.933,10.021-13.409,8.109c-2.477-1.908-0.491-8.64,4.434-15.028
			c4.93-6.392,10.937-10.021,13.409-8.108C176.167,174.084,174.182,180.812,169.256,187.204z"/>
	</g>
	<g>
		<path fill="#F2F2C4" d="M178.719,203.288c-7.455-3.079-12.531-7.929-11.338-10.818c1.199-2.889,8.214-2.736,15.665,0.355
			c7.461,3.08,12.535,7.925,11.339,10.814C193.189,206.528,186.177,206.375,178.719,203.288z"/>
	</g>
	<g>
		<path fill="#F2F2C4" d="M155.48,199.541c-7.453-3.087-12.532-7.933-11.338-10.822c1.199-2.889,8.212-2.732,15.669,0.351
			c7.456,3.083,12.531,7.93,11.338,10.818C169.95,202.777,162.94,202.624,155.48,199.541z"/>
	</g>
	<g>
		<path fill="#F2F2C4" d="M172.122,217.392c-4.931,6.392-10.934,10.025-13.41,8.11c-2.477-1.909-0.491-8.636,4.438-15.028
			c4.926-6.392,10.933-10.021,13.406-8.109C179.036,204.276,177.052,211.004,172.122,217.392z"/>
	</g>
	<g>
		<path fill="#D8D6AA" d="M166.02,189.401c-8.063-0.377-14.478-3.221-14.334-6.342c0.146-3.125,6.805-5.358,14.864-4.976
			c8.06,0.381,14.474,3.22,14.329,6.345C180.73,187.554,174.078,189.779,166.02,189.401z"/>
	</g>
	<g>
		<path fill="#D8D6AA" d="M183.685,199.021c-8.061-0.382-14.476-3.224-14.329-6.35c0.145-3.126,6.801-5.35,14.862-4.972
			c8.06,0.382,14.475,3.221,14.325,6.342C198.398,197.171,191.748,199.399,183.685,199.021z"/>
	</g>
	<g>
		<path fill="#D8D6AA" d="M180.742,216.19c-7.491-3.007-12.615-7.8-11.453-10.704c1.173-2.904,8.182-2.816,15.678,0.194
			c7.483,3.007,12.608,7.8,11.44,10.7C195.238,219.285,188.226,219.204,180.742,216.19z"/>
	</g>
	<g>
		<path fill="#FAFAEE" d="M210.259,192.363c2.76,7.586,2.614,14.6-0.323,15.672c-2.942,1.064-7.561-4.213-10.32-11.795
			c-2.761-7.579-2.617-14.597,0.322-15.661C202.88,179.507,207.5,184.785,210.259,192.363z"/>
	</g>
	<g>
		<path fill="#B7B67B" d="M189.29,233.057c-6.14,5.239-12.761,7.552-14.791,5.17c-2.031-2.378,1.297-8.552,7.44-13.792
			c6.136-5.239,12.762-7.552,14.787-5.17C198.76,221.643,195.43,227.822,189.29,233.057z"/>
	</g>
	<g>
		<path fill="#B7B67B" d="M187.695,266.218c-7.824-1.989-13.544-6.053-12.773-9.087c0.771-3.031,7.732-3.881,15.56-1.896
			c7.817,1.98,13.535,6.054,12.763,9.082C202.481,267.352,195.514,268.206,187.695,266.218z"/>
	</g>
	<g>
		<path fill="#F2F2C4" d="M179.342,229.302c-4.928,6.388-10.934,10.017-13.409,8.105c-2.478-1.908-0.493-8.639,4.435-15.027
			c4.925-6.388,10.937-10.021,13.413-8.109C186.252,216.182,184.269,222.91,179.342,229.302z"/>
	</g>
	<g>
		<path fill="#F2F2C4" d="M188.806,245.386c-7.457-3.083-12.531-7.93-11.338-10.823c1.198-2.889,8.211-2.732,15.665,0.355
			c7.459,3.08,12.532,7.926,11.342,10.819C203.275,248.626,196.261,248.474,188.806,245.386z"/>
	</g>
	<g>
		<path fill="#F2F2C4" d="M165.564,241.635c-7.451-3.088-12.531-7.93-11.336-10.819c1.197-2.893,8.212-2.736,15.667,0.348
			c7.457,3.083,12.534,7.934,11.338,10.822C180.036,244.875,173.022,244.722,165.564,241.635z"/>
	</g>
	<g>
		<path fill="#F2F2C4" d="M182.207,259.49c-4.928,6.388-10.929,10.021-13.409,8.109c-2.477-1.912-0.493-8.64,4.438-15.027
			c4.926-6.392,10.933-10.021,13.409-8.113C189.122,246.371,187.138,253.098,182.207,259.49z"/>
	</g>
	<g>
		<path fill="#D8D6AA" d="M176.105,231.496c-8.064-0.377-14.479-3.217-14.333-6.342c0.147-3.125,6.801-5.354,14.863-4.977
			c8.061,0.382,14.471,3.221,14.325,6.346C190.815,229.649,184.165,231.877,176.105,231.496z"/>
	</g>
	<g>
		<path fill="#D8D6AA" d="M193.772,241.116c-8.062-0.381-14.477-3.22-14.333-6.35c0.146-3.121,6.805-5.35,14.864-4.972
			c8.056,0.381,14.47,3.22,14.326,6.346C208.484,239.266,201.829,241.494,193.772,241.116z"/>
	</g>
	<g>
		<path fill="#D8D6AA" d="M190.827,258.29c-7.486-3.013-12.615-7.802-11.447-10.709c1.167-2.9,8.182-2.812,15.672,0.195
			c7.483,3.007,12.605,7.799,11.44,10.701C205.328,261.382,198.314,261.3,190.827,258.29z"/>
	</g>
	<g>
		<path fill="#FAFAEE" d="M165.753,224.349c2.758,7.579,2.613,14.592-0.325,15.665c-2.938,1.073-7.562-4.209-10.322-11.791
			c-2.759-7.579-2.613-14.597,0.324-15.666C158.372,211.484,162.993,216.762,165.753,224.349z"/>
	</g>
	<g>
		<path fill="#FAFAEE" d="M205.561,232.068c2.759,7.579,2.614,14.597-0.323,15.666c-2.938,1.072-7.56-4.206-10.322-11.792
			c-2.76-7.582-2.614-14.596,0.323-15.665C198.185,219.204,202.803,224.482,205.561,232.068z"/>
	</g>
	<g>
		<path fill="#B7B67B" d="M199.383,275.182c-6.14,5.238-12.765,7.551-14.795,5.17c-2.029-2.377,1.298-8.547,7.445-13.791
			c6.133-5.234,12.753-7.551,14.787-5.17C208.851,263.768,205.52,269.947,199.383,275.182z"/>
	</g>
	<g>
		<path fill="#B7B67B" d="M197.784,308.343c-7.826-1.987-13.542-6.054-12.772-9.089c0.771-3.031,7.731-3.879,15.562-1.895
			c7.82,1.983,13.532,6.053,12.765,9.086C212.567,309.477,205.604,310.328,197.784,308.343z"/>
	</g>
	<g>
		<path fill="#B7B67B" d="M182.521,291.041c-7.915,1.58-14.825,0.379-15.439-2.697c-0.615-3.062,5.303-6.834,13.222-8.414
			c7.907-1.58,14.817-0.375,15.433,2.692C196.35,285.691,190.434,289.457,182.521,291.041z"/>
	</g>
	<g>
		<path fill="#F2F2C4" d="M189.435,271.427c-4.934,6.388-10.937,10.021-13.417,8.104c-2.477-1.908-0.488-8.637,4.44-15.023
			c4.928-6.392,10.931-10.021,13.406-8.117C196.345,258.309,194.362,265.034,189.435,271.427z"/>
	</g>
	<g>
		<path fill="#F2F2C4" d="M198.895,287.51c-7.456-3.083-12.532-7.929-11.333-10.816c1.193-2.893,8.208-2.736,15.664,0.351
			c7.456,3.083,12.531,7.927,11.337,10.817C213.369,290.748,206.352,290.593,198.895,287.51z"/>
	</g>
	<g>
		<path fill="#F2F2C4" d="M175.655,283.76c-7.457-3.084-12.532-7.933-11.339-10.818c1.2-2.893,8.214-2.736,15.669,0.352
			c7.458,3.083,12.537,7.93,11.342,10.818C190.128,287,183.116,286.846,175.655,283.76z"/>
	</g>
	<g>
		<path fill="#F2F2C4" d="M180.018,302.497c-4.931,6.396-10.938,10.024-13.409,8.112c-2.478-1.911-0.493-8.637,4.434-15.031
			c4.93-6.389,10.933-10.018,13.409-8.104C186.931,289.377,184.944,296.109,180.018,302.497z"/>
	</g>
	<g>
		<path fill="#D8D6AA" d="M186.199,273.625c-8.067-0.382-14.481-3.221-14.338-6.348c0.149-3.123,6.801-5.35,14.868-4.971
			c8.055,0.379,14.471,3.221,14.325,6.346C200.909,271.773,194.255,274.003,186.199,273.625z"/>
	</g>
	<g>
		<path fill="#D8D6AA" d="M203.862,283.242c-8.062-0.385-14.481-3.223-14.332-6.348c0.144-3.125,6.801-5.35,14.863-4.977
			c8.06,0.378,14.474,3.227,14.328,6.352C218.578,281.393,211.918,283.619,203.862,283.242z"/>
	</g>
	<g>
		<path fill="#D8D6AA" d="M200.913,300.414c-7.483-3.012-12.612-7.801-11.448-10.704c1.168-2.899,8.187-2.815,15.678,0.19
			c7.485,3.008,12.606,7.804,11.439,10.703C215.415,303.508,208.403,303.423,200.913,300.414z"/>
	</g>
	<g>
		<path fill="#FAFAEE" d="M181.692,282.314c2.759,7.58,2.617,14.596-0.325,15.666c-2.938,1.069-7.56-4.211-10.322-11.793
			c-2.759-7.584-2.613-14.594,0.324-15.66C174.308,269.45,178.93,274.73,181.692,282.314z"/>
	</g>
	<g>
		<path fill="#FAFAEE" d="M215.654,274.193c2.759,7.582,2.61,14.598-0.332,15.668c-2.934,1.068-7.555-4.209-10.318-11.799
			c-2.759-7.573-2.613-14.588,0.324-15.662C208.271,261.33,212.896,266.611,215.654,274.193z"/>
	</g>
	<g>
		<path fill="#B7B67B" d="M68.051,241.128c-6.144,5.235-12.763,7.555-14.798,5.17c-2.026-2.377,1.301-8.552,7.444-13.792
			c6.133-5.235,12.758-7.551,14.788-5.17C77.515,229.718,74.188,235.893,68.051,241.128z"/>
	</g>
	<g>
		<path fill="#B7B67B" d="M66.448,274.292c-7.822-1.987-13.538-6.056-12.769-9.091c0.771-3.029,7.731-3.881,15.558-1.899
			c7.819,1.988,13.532,6.062,12.768,9.089C81.236,275.422,74.271,276.277,66.448,274.292z"/>
	</g>
	<g>
		<path fill="#B7B67B" d="M52.005,261.963c-7.915,1.579-14.821,0.378-15.436-2.691c-0.615-3.066,5.3-6.836,13.214-8.42
			c7.915-1.582,14.825-0.372,15.437,2.689C65.834,256.609,59.919,260.383,52.005,261.963z"/>
	</g>
	<g>
		<path fill="#F2F2C4" d="M58.096,237.369c-4.927,6.392-10.933,10.021-13.41,8.113c-2.477-1.908-0.487-8.64,4.442-15.031
			c4.926-6.388,10.928-10.021,13.404-8.109C65.01,224.253,63.026,230.981,58.096,237.369z"/>
	</g>
	<g>
		<path fill="#F2F2C4" d="M67.562,253.458c-7.455-3.084-12.531-7.931-11.332-10.819c1.19-2.889,8.204-2.736,15.665,0.351
			c7.452,3.08,12.532,7.93,11.336,10.818C82.03,256.695,75.02,256.545,67.562,253.458z"/>
	</g>
	<g>
		<path fill="#F2F2C4" d="M44.323,249.71c-7.456-3.088-12.532-7.935-11.338-10.823c1.199-2.889,8.213-2.736,15.665,0.351
			c7.461,3.08,12.531,7.926,11.338,10.819C58.794,252.945,51.78,252.793,44.323,249.71z"/>
	</g>
	<g>
		<path fill="#F2F2C4" d="M60.965,267.561c-4.927,6.394-10.934,10.021-13.41,8.109c-2.476-1.908-0.491-8.636,4.434-15.027
			c4.932-6.393,10.935-10.021,13.41-8.113C67.876,254.441,65.892,261.172,60.965,267.561z"/>
	</g>
	<g>
		<path fill="#D8D6AA" d="M54.86,239.57c-8.061-0.381-14.479-3.22-14.33-6.346c0.148-3.121,6.8-5.354,14.866-4.972
			c8.052,0.378,14.472,3.221,14.322,6.342C69.574,237.724,62.919,239.948,54.86,239.57z"/>
	</g>
	<g>
		<path fill="#D8D6AA" d="M72.527,249.187c-8.063-0.381-14.478-3.22-14.329-6.345c0.148-3.125,6.801-5.354,14.863-4.973
			c8.057,0.382,14.471,3.218,14.326,6.343C87.242,247.336,80.587,249.565,72.527,249.187z"/>
	</g>
	<g>
		<path fill="#D8D6AA" d="M69.581,266.359c-7.49-3.008-12.611-7.801-11.443-10.707c1.168-2.9,8.176-2.812,15.668,0.197
			c7.487,3.004,12.607,7.797,11.448,10.699C84.083,269.454,77.068,269.37,69.581,266.359z"/>
	</g>
	<g>
		<path fill="#FAFAEE" d="M44.506,232.419c2.763,7.583,2.619,14.597-0.32,15.669c-2.942,1.069-7.56-4.209-10.326-11.795
			c-2.755-7.579-2.61-14.592,0.325-15.666C37.127,219.56,41.747,224.836,44.506,232.419z"/>
	</g>
	<g>
		<path fill="#FAFAEE" d="M91.866,241.444c7.668,2.507,13.1,6.954,12.124,9.93c-0.97,2.969-7.979,3.347-15.65,0.84
			c-7.665-2.511-13.096-6.957-12.122-9.926C77.19,239.311,84.197,238.934,91.866,241.444z"/>
	</g>
	<g>
		<path fill="#B7B67B" d="M226.041,180.449c-6.14,5.239-12.761,7.556-14.791,5.17c-2.03-2.378,1.299-8.548,7.442-13.791
			c6.137-5.235,12.756-7.552,14.787-5.17C235.514,169.036,232.178,175.214,226.041,180.449z"/>
	</g>
	<g>
		<path fill="#B7B67B" d="M224.446,213.61c-7.826-1.988-13.543-6.053-12.769-9.086c0.769-3.03,7.732-3.881,15.555-1.897
			c7.822,1.988,13.535,6.057,12.771,9.082C239.229,214.744,232.265,215.595,224.446,213.61z"/>
	</g>
	<g>
		<path fill="#F2F2C4" d="M216.094,176.694c-4.928,6.388-10.933,10.017-13.409,8.109c-2.477-1.913-0.493-8.64,4.438-15.032
			c4.926-6.388,10.929-10.021,13.405-8.108C223.008,163.574,221.02,170.303,216.094,176.694z"/>
	</g>
	<g>
		<path fill="#F2F2C4" d="M225.557,192.779c-7.456-3.083-12.531-7.93-11.337-10.818c1.195-2.889,8.213-2.736,15.668,0.351
			c7.457,3.079,12.536,7.93,11.342,10.818C240.031,196.018,233.011,195.866,225.557,192.779z"/>
	</g>
	<g>
		<path fill="#F2F2C4" d="M202.318,189.027c-7.458-3.083-12.529-7.93-11.335-10.818s8.208-2.736,15.666,0.351
			c7.456,3.08,12.534,7.93,11.34,10.818C216.788,192.267,209.773,192.115,202.318,189.027z"/>
	</g>
	<g>
		<path fill="#D8D6AA" d="M212.857,178.892c-8.063-0.381-14.481-3.221-14.334-6.346c0.146-3.121,6.801-5.354,14.864-4.972
			c8.06,0.377,14.474,3.216,14.329,6.341C227.568,177.041,220.916,179.271,212.857,178.892z"/>
	</g>
	<g>
		<path fill="#D8D6AA" d="M230.525,188.509c-8.067-0.382-14.482-3.221-14.332-6.346c0.147-3.125,6.795-5.354,14.861-4.973
			c8.061,0.382,14.479,3.217,14.334,6.343C245.24,186.658,238.585,188.886,230.525,188.509z"/>
	</g>
	<g>
		<path fill="#D8D6AA" d="M227.576,205.681c-7.483-3.007-12.612-7.8-11.449-10.704c1.168-2.904,8.186-2.816,15.678,0.191
			c7.486,3.011,12.611,7.799,11.44,10.704C242.08,208.775,235.063,208.691,227.576,205.681z"/>
	</g>
	<g>
		<path fill="#FAFAEE" d="M201.097,177.77c-5.827,5.583-12.307,8.273-14.47,6.014c-2.164-2.259,0.805-8.617,6.635-14.196
			c5.832-5.582,12.311-8.272,14.471-6.014C209.896,165.833,206.927,172.191,201.097,177.77z"/>
	</g>
	<g>
		<path fill="#B7B67B" d="M220.016,218.804c-6.136,5.239-12.764,7.552-14.794,5.171c-2.03-2.377,1.302-8.547,7.441-13.791
			c6.136-5.235,12.76-7.548,14.795-5.171C229.484,207.39,226.156,213.568,220.016,218.804z"/>
	</g>
	<g>
		<path fill="#B7B67B" d="M218.417,251.964c-7.827-1.988-13.543-6.048-12.768-9.085c0.771-3.034,7.73-3.881,15.562-1.893
			c7.815,1.981,13.527,6.053,12.761,9.079C233.2,253.098,226.243,253.949,218.417,251.964z"/>
	</g>
	<g>
		<path fill="#B7B67B" d="M203.978,239.644c-7.918,1.575-14.825,0.374-15.44-2.698c-0.614-3.065,5.302-6.835,13.22-8.415
			c7.906-1.583,14.816-0.378,15.435,2.69C217.808,234.285,211.889,238.06,203.978,239.644z"/>
	</g>
	<g>
		<path fill="#F2F2C4" d="M210.067,215.049c-4.925,6.392-10.937,10.021-13.409,8.109c-2.478-1.912-0.492-8.639,4.438-15.032
			c4.926-6.384,10.929-10.017,13.402-8.108C216.979,201.929,214.999,208.657,210.067,215.049z"/>
	</g>
	<g>
		<path fill="#F2F2C4" d="M219.531,231.133c-7.456-3.083-12.531-7.93-11.333-10.818c1.194-2.889,8.209-2.736,15.664,0.351
			c7.454,3.08,12.531,7.93,11.338,10.818C234.001,234.374,226.989,234.22,219.531,231.133z"/>
	</g>
	<g>
		<path fill="#F2F2C4" d="M196.293,227.382c-7.458-3.083-12.533-7.929-11.335-10.818c1.193-2.889,8.204-2.736,15.662,0.351
			c7.455,3.084,12.535,7.93,11.341,10.819C210.763,230.622,203.753,230.469,196.293,227.382z"/>
	</g>
	<g>
		<path fill="#F2F2C4" d="M212.933,245.238c-4.925,6.392-10.932,10.021-13.408,8.11c-2.478-1.91-0.488-8.637,4.438-15.029
			c4.926-6.392,10.929-10.021,13.406-8.108C219.845,232.122,217.859,238.85,212.933,245.238z"/>
	</g>
	<g>
		<path fill="#D8D6AA" d="M224.497,226.863c-8.061-0.382-14.476-3.221-14.329-6.346c0.145-3.125,6.798-5.35,14.865-4.972
			c8.052,0.377,14.476,3.22,14.325,6.342C239.215,225.016,232.556,227.241,224.497,226.863z"/>
	</g>
	<g>
		
			<ellipse transform="matrix(0.9279 0.3728 -0.3728 0.9279 105.1421 -66.1707)" fill="#D8D6AA" cx="223.663" cy="238.772" rx="14.61" ry="5.665"/>
	</g>
	<g>
		<path fill="#FAFAEE" d="M227.347,218.167c2.76,7.583,2.618,14.601-0.324,15.668c-2.942,1.068-7.561-4.209-10.322-11.795
			c-2.759-7.578-2.61-14.592,0.324-15.661C219.963,205.307,224.583,210.584,227.347,218.167z"/>
	</g>
	<g>
		<path fill="#FAFAEE" d="M249.826,225.769c2.76,7.582,2.619,14.596-0.327,15.668c-2.938,1.068-7.564-4.209-10.326-11.795
			c-2.764-7.579-2.618-14.592,0.324-15.665C242.436,212.908,247.064,218.186,249.826,225.769z"/>
	</g>
	<g>
		<path fill="#FAFAEE" d="M250.8,211.126c6.479,4.82,10.212,10.765,8.339,13.271c-1.867,2.508-8.632,0.634-15.117-4.185
			c-6.466-4.824-10.199-10.766-8.329-13.276C237.562,204.429,244.327,206.303,250.8,211.126z"/>
	</g>
	<g>
		<path fill="#B7B67B" d="M234.467,241.902c-6.144,5.239-12.765,7.556-14.795,5.171c-2.026-2.377,1.299-8.548,7.442-13.791
			c6.137-5.235,12.765-7.549,14.791-5.171C243.938,230.493,240.606,236.667,234.467,241.902z"/>
	</g>
	<g>
		<path fill="#B7B67B" d="M234.528,292.303c-7.823-1.986-13.535-6.051-12.769-9.088c0.771-3.031,7.729-3.878,15.56-1.895
			c7.825,1.984,13.542,6.053,12.778,9.087C249.327,293.438,242.359,294.289,234.528,292.303z"/>
	</g>
	<g>
		<path fill="#B7B67B" d="M220.085,279.982c-7.91,1.576-14.824,0.373-15.44-2.698c-0.605-3.063,5.305-6.834,13.224-8.414
			c7.911-1.58,14.821-0.377,15.439,2.688C233.915,274.625,228.004,278.395,220.085,279.982z"/>
	</g>
	<g>
		<path fill="#F2F2C4" d="M226.176,255.389c-4.928,6.387-10.931,10.021-13.409,8.104c-2.477-1.907-0.489-8.636,4.438-15.024
			c4.925-6.392,10.932-10.021,13.413-8.112C233.085,242.265,231.105,248.996,226.176,255.389z"/>
	</g>
	<g>
		<path fill="#F2F2C4" d="M235.647,271.473c-7.462-3.084-12.541-7.931-11.342-10.818c1.198-2.893,8.211-2.735,15.669,0.351
			c7.464,3.084,12.542,7.927,11.342,10.818C250.12,274.712,243.103,274.555,235.647,271.473z"/>
	</g>
	<g>
		<path fill="#F2F2C4" d="M212.402,267.721c-7.455-3.084-12.531-7.934-11.336-10.818c1.193-2.893,8.215-2.734,15.673,0.353
			c7.455,3.084,12.526,7.927,11.332,10.817C226.874,270.961,219.863,270.809,212.402,267.721z"/>
	</g>
	<g>
		<path fill="#F2F2C4" d="M229.045,285.577c-4.928,6.394-10.933,10.021-13.409,8.108c-2.477-1.908-0.493-8.64,4.438-15.027
			c4.926-6.393,10.933-10.021,13.405-8.112C235.955,272.46,233.972,279.188,229.045,285.577z"/>
	</g>
	<g>
		
			<ellipse transform="matrix(0.9989 0.0467 -0.0467 0.9989 11.8556 -10.6944)" fill="#D8D6AA" cx="234.769" cy="248.344" rx="14.615" ry="5.662"/>
	</g>
	<g>
		<path fill="#D8D6AA" d="M240.611,267.203c-8.062-0.383-14.478-3.221-14.334-6.348c0.15-3.125,6.801-5.35,14.864-4.973
			c8.067,0.375,14.486,3.221,14.335,6.348C255.334,265.355,248.674,267.58,240.611,267.203z"/>
	</g>
	<g>
		<path fill="#D8D6AA" d="M237.665,284.375c-7.49-3.011-12.611-7.8-11.447-10.703c1.167-2.9,8.178-2.82,15.676,0.189
			c7.487,3.008,12.611,7.801,11.448,10.703C252.174,287.465,245.156,287.385,237.665,284.375z"/>
	</g>
	<g>
		<path fill="#FAFAEE" d="M231.601,263.311c2.76,7.586,2.614,14.601-0.323,15.668c-2.941,1.071-7.56-4.205-10.322-11.791
			c-2.759-7.58-2.613-14.597,0.324-15.67C224.222,250.45,228.843,255.727,231.601,263.311z"/>
	</g>
	<g>
		<path fill="#FAFAEE" d="M248.529,248.446c2.762,7.583,2.622,14.6-0.321,15.668c-2.942,1.067-7.569-4.21-10.334-11.791
			c-2.758-7.583-2.613-14.596,0.329-15.665C241.142,235.59,245.767,240.868,248.529,248.446z"/>
	</g>
	<g>
		<path fill="#B7B67B" d="M236.464,277.854c-6.145,5.233-12.769,7.547-14.8,5.17c-2.025-2.377,1.302-8.551,7.444-13.791
			c6.137-5.235,12.763-7.553,14.796-5.174C245.935,266.439,242.604,272.614,236.464,277.854z"/>
	</g>
	<g>
		<path fill="#B7B67B" d="M234.861,311.01c-7.824-1.986-13.54-6.049-12.77-9.086c0.771-3.029,7.735-3.877,15.559-1.896
			c7.826,1.988,13.54,6.058,12.775,9.086C249.655,312.146,242.691,312.998,234.861,311.01z"/>
	</g>
	<g>
		<path fill="#B7B67B" d="M220.418,298.689c-7.911,1.58-14.822,0.377-15.438-2.695c-0.613-3.062,5.302-6.833,13.22-8.418
			c7.906-1.58,14.821-0.377,15.436,2.689C234.249,293.335,228.336,297.105,220.418,298.689z"/>
	</g>
	<g>
		<path fill="#F2F2C4" d="M226.507,274.094c-4.927,6.389-10.93,10.023-13.401,8.109c-2.48-1.908-0.496-8.639,4.435-15.028
			c4.927-6.392,10.929-10.021,13.405-8.112C233.426,260.975,231.438,267.706,226.507,274.094z"/>
	</g>
	<g>
		<path fill="#F2F2C4" d="M235.979,290.182c-7.461-3.086-12.533-7.934-11.339-10.82c1.195-2.891,8.208-2.735,15.666,0.351
			c7.463,3.083,12.542,7.929,11.348,10.822C250.452,293.417,243.435,293.266,235.979,290.182z"/>
	</g>
	<g>
		<path fill="#F2F2C4" d="M212.739,286.432c-7.456-3.082-12.536-7.935-11.341-10.817c1.197-2.896,8.208-2.737,15.668,0.346
			c7.456,3.085,12.531,7.931,11.333,10.819C227.206,289.67,220.195,289.516,212.739,286.432z"/>
	</g>
	<g>
		<path fill="#F2F2C4" d="M214.624,294.116c7.251,3.554,12.005,8.709,10.623,11.519c-1.373,2.809-8.363,2.208-15.611-1.344
			c-7.242-3.553-12.001-8.713-10.618-11.518C200.391,289.961,207.378,290.564,214.624,294.116z"/>
	</g>
	<g>
		<path fill="#D8D6AA" d="M223.275,276.293c-8.064-0.38-14.479-3.22-14.333-6.348c0.147-3.12,6.801-5.348,14.867-4.969
			c8.06,0.379,14.474,3.221,14.326,6.342C237.989,274.445,231.339,276.673,223.275,276.293z"/>
	</g>
	<g>
		<path fill="#D8D6AA" d="M240.943,285.909c-8.063-0.377-14.478-3.218-14.334-6.345c0.15-3.123,6.801-5.35,14.872-4.975
			c8.06,0.378,14.48,3.225,14.333,6.346C255.669,284.061,249.01,286.29,240.943,285.909z"/>
	</g>
	<g>
		<path fill="#D8D6AA" d="M237.996,303.083c-7.489-3.01-12.614-7.802-11.446-10.707c1.167-2.899,8.182-2.815,15.676,0.19
			c7.487,3.011,12.62,7.808,11.448,10.705C252.506,306.18,245.488,306.096,237.996,303.083z"/>
	</g>
	<g>
		<path fill="#FAFAEE" d="M228.835,269.664c-8.06,0.363-14.71-1.874-14.853-4.998c-0.141-3.127,6.283-5.953,14.341-6.316
			c8.063-0.367,14.715,1.873,14.853,5C243.319,266.468,236.898,269.301,228.835,269.664z"/>
	</g>
	<g>
		<path fill="#FAFAEE" d="M231.933,282.02c2.76,7.582,2.619,14.6-0.327,15.668c-2.935,1.068-7.559-4.203-10.319-11.795
			c-2.763-7.574-2.613-14.593,0.325-15.66C224.545,269.16,229.17,274.438,231.933,282.02z"/>
	</g>
	<g>
		<path fill="#FAFAEE" d="M252.738,276.861c2.767,7.582,2.621,14.597-0.321,15.668c-2.942,1.072-7.569-4.209-10.33-11.795
			c-2.763-7.578-2.613-14.592,0.325-15.662C245.354,264.001,249.979,269.277,252.738,276.861z"/>
	</g>
	<g>
		<path fill="#B7B67B" d="M378.033,263.993c6.14,5.239,12.76,7.553,14.795,5.171c2.025-2.377-1.302-8.548-7.444-13.791
			c-6.133-5.236-12.762-7.552-14.788-5.174C368.562,252.583,371.89,258.757,378.033,263.993z"/>
	</g>
	<g>
		<path fill="#B7B67B" d="M379.636,297.154c7.819-1.987,13.531-6.053,12.767-9.086c-0.771-3.029-7.732-3.881-15.559-1.896
			c-7.818,1.984-13.536,6.053-12.77,9.086C364.845,298.291,371.805,299.139,379.636,297.154z"/>
	</g>
	<g>
		<path fill="#B7B67B" d="M394.072,284.829c7.918,1.581,14.825,0.378,15.442-2.694c0.609-3.061-5.305-6.834-13.222-8.419
			c-7.911-1.579-14.823-0.377-15.438,2.691C380.247,279.475,386.162,283.249,394.072,284.829z"/>
	</g>
	<g>
		<path fill="#F2F2C4" d="M387.985,260.239c4.927,6.387,10.93,10.021,13.409,8.104c2.473-1.907,0.487-8.639-4.441-15.024
			c-4.923-6.389-10.934-10.022-13.405-8.111C381.071,247.119,383.056,253.846,387.985,260.239z"/>
	</g>
	<g>
		<path fill="#F2F2C4" d="M378.513,276.323c7.458-3.083,12.538-7.929,11.343-10.823c-1.201-2.889-8.207-2.734-15.67,0.355
			c-7.45,3.082-12.529,7.927-11.335,10.817C364.047,279.559,371.058,279.406,378.513,276.323z"/>
	</g>
	<g>
		<path fill="#F2F2C4" d="M401.754,272.572c7.459-3.08,12.535-7.936,11.341-10.819c-1.197-2.892-8.213-2.735-15.668,0.349
			c-7.457,3.082-12.532,7.934-11.334,10.822C387.287,275.811,394.3,275.659,401.754,272.572z"/>
	</g>
	<g>
		<path fill="#F2F2C4" d="M385.115,290.427c4.928,6.388,10.934,10.023,13.409,8.104c2.474-1.904,0.492-8.637-4.438-15.023
			c-4.925-6.392-10.928-10.021-13.404-8.111C378.201,277.312,380.186,284.036,385.115,290.427z"/>
	</g>
	<g>
		<path fill="#D8D6AA" d="M391.221,262.432c8.062-0.377,14.472-3.217,14.325-6.342c-0.144-3.126-6.8-5.35-14.858-4.973
			c-8.059,0.378-14.474,3.218-14.325,6.347C376.508,260.585,383.158,262.816,391.221,262.432z"/>
	</g>
	<g>
		<path fill="#D8D6AA" d="M373.554,272.052c8.057-0.382,14.476-3.221,14.329-6.346c-0.148-3.126-6.805-5.351-14.863-4.972
			c-8.061,0.373-14.475,3.219-14.324,6.346C358.839,270.202,365.493,272.43,373.554,272.052z"/>
	</g>
	<g>
		<path fill="#D8D6AA" d="M376.496,289.225c7.489-3.011,12.61-7.8,11.446-10.707c-1.167-2.896-8.181-2.813-15.667,0.193
			c-7.483,3.007-12.612,7.805-11.448,10.704C361.995,292.32,369.009,292.234,376.496,289.225z"/>
	</g>
	<g>
		<path fill="#FAFAEE" d="M401.57,255.286c-2.76,7.577-2.614,14.596,0.323,15.664c2.939,1.071,7.562-4.209,10.323-11.788
			c2.755-7.587,2.614-14.6-0.325-15.668C408.95,242.425,404.329,247.703,401.57,255.286z"/>
	</g>
	<g>
		<path fill="#FAFAEE" d="M387.439,275.75c8.045,0.629,14.765-1.385,15.013-4.507c0.24-3.113-6.083-6.16-14.13-6.789
			c-8.038-0.629-14.763,1.386-15.005,4.503C373.068,272.08,379.396,275.12,387.439,275.75z"/>
	</g>
	<g>
		<path fill="#FAFAEE" d="M361.762,263.005c-2.759,7.581-2.612,14.597,0.325,15.669c2.942,1.068,7.56-4.209,10.322-11.799
			c2.759-7.579,2.608-14.594-0.324-15.662C369.146,250.141,364.524,255.422,361.762,263.005z"/>
	</g>
	<g>
		<path fill="#B7B67B" d="M384.059,219.197c6.145,5.239,12.762,7.552,14.791,5.17c2.03-2.377-1.298-8.548-7.439-13.792
			c-6.137-5.235-12.764-7.548-14.788-5.17C374.588,207.783,377.919,213.961,384.059,219.197z"/>
	</g>
	<g>
		<path fill="#B7B67B" d="M385.657,252.357c7.818-1.987,13.54-6.047,12.769-9.085c-0.771-3.033-7.729-3.881-15.557-1.893
			c-7.819,1.98-13.535,6.053-12.766,9.078C370.87,253.492,377.83,254.342,385.657,252.357z"/>
	</g>
	<g>
		<path fill="#B7B67B" d="M400.098,240.036c7.915,1.577,14.83,0.374,15.443-2.697c0.605-3.064-5.305-6.834-13.222-8.415
			c-7.911-1.584-14.823-0.378-15.439,2.69C386.273,234.678,392.184,238.453,400.098,240.036z"/>
	</g>
	<g>
		<path fill="#F2F2C4" d="M394.007,215.442c4.927,6.392,10.93,10.021,13.413,8.108c2.473-1.911,0.489-8.639-4.437-15.031
			c-4.929-6.387-10.936-10.017-13.413-8.109C387.097,202.322,389.084,209.05,394.007,215.442z"/>
	</g>
	<g>
		<path fill="#F2F2C4" d="M384.543,231.527c7.457-3.084,12.533-7.93,11.337-10.818c-1.197-2.893-8.211-2.737-15.664,0.351
			c-7.46,3.079-12.531,7.929-11.34,10.818C370.072,234.766,377.087,234.613,384.543,231.527z"/>
	</g>
	<g>
		<path fill="#F2F2C4" d="M407.783,227.775c7.46-3.083,12.531-7.93,11.333-10.818c-1.19-2.889-8.208-2.737-15.668,0.351
			c-7.453,3.083-12.528,7.929-11.334,10.818C393.308,231.015,400.327,230.863,407.783,227.775z"/>
	</g>
	<g>
		<path fill="#D8D6AA" d="M397.247,217.64c8.06-0.378,14.474-3.221,14.325-6.346c-0.146-3.125-6.797-5.354-14.856-4.972
			c-8.062,0.382-14.477,3.217-14.329,6.342C382.533,215.789,389.188,218.018,397.247,217.64z"/>
	</g>
	<g>
		<path fill="#D8D6AA" d="M379.579,227.257c8.061-0.382,14.478-3.221,14.329-6.347c-0.146-3.125-6.801-5.35-14.859-4.972
			c-8.061,0.377-14.475,3.221-14.329,6.342C364.867,225.409,371.521,227.638,379.579,227.257z"/>
	</g>
	<g>
		<path fill="#D8D6AA" d="M382.525,244.429c7.485-3.011,12.61-7.8,11.441-10.705c-1.162-2.904-8.177-2.816-15.666,0.191
			c-7.488,3.011-12.607,7.799-11.445,10.704C368.02,247.523,375.034,247.439,382.525,244.429z"/>
	</g>
	<g>
		<path fill="#FAFAEE" d="M418.827,213.461c-7.591-2.732-14.609-2.564-15.666,0.382c-1.061,2.941,4.235,7.543,11.826,10.28
			c7.594,2.732,14.607,2.561,15.669-0.382C431.713,220.799,426.425,216.197,418.827,213.461z"/>
	</g>
	<g>
		<path fill="#FAFAEE" d="M391.827,230.576c7.511,2.961,14.528,3,15.677,0.088c1.146-2.912-4.011-7.666-11.52-10.627
			c-7.507-2.958-14.524-3-15.669-0.084C379.167,222.864,384.321,227.619,391.827,230.576z"/>
	</g>
	<g>
		<path fill="#FAFAEE" d="M367.787,218.208c-2.758,7.579-2.614,14.596,0.325,15.668c2.938,1.069,7.559-4.209,10.32-11.795
			c2.761-7.579,2.614-14.593-0.322-15.665C375.168,205.349,370.55,210.626,367.787,218.208z"/>
	</g>
	<g>
		<path fill="#B7B67B" d="M346.318,222.883c6.141,5.239,12.765,7.556,14.795,5.17c2.025-2.377-1.298-8.548-7.441-13.791
			c-6.136-5.235-12.765-7.552-14.791-5.17C336.848,211.473,340.174,217.648,346.318,222.883z"/>
	</g>
	<g>
		<path fill="#B7B67B" d="M347.921,256.044c7.819-1.987,13.535-6.052,12.766-9.086c-0.771-3.03-7.73-3.88-15.558-1.896
			c-7.82,1.988-13.536,6.056-12.766,9.086C333.134,257.178,340.09,258.029,347.921,256.044z"/>
	</g>
	<g>
		<path fill="#B7B67B" d="M362.357,243.719c7.918,1.583,14.828,0.378,15.442-2.694c0.609-3.064-5.301-6.834-13.222-8.417
			c-7.908-1.581-14.823-0.371-15.438,2.69C348.528,238.369,354.447,242.139,362.357,243.719z"/>
	</g>
	<g>
		<path fill="#F2F2C4" d="M356.271,219.128c4.927,6.388,10.93,10.017,13.405,8.109c2.479-1.908,0.495-8.64-4.438-15.032
			c-4.923-6.387-10.935-10.017-13.405-8.105C349.356,206.009,351.34,212.736,356.271,219.128z"/>
	</g>
	<g>
		<path fill="#F2F2C4" d="M346.803,235.213c7.453-3.083,12.532-7.93,11.337-10.819c-1.195-2.888-8.207-2.736-15.664,0.352
			c-7.456,3.083-12.534,7.93-11.34,10.818C332.336,238.453,339.343,238.3,346.803,235.213z"/>
	</g>
	<g>
		<path fill="#F2F2C4" d="M370.043,231.466c7.455-3.088,12.531-7.934,11.337-10.823c-1.198-2.888-8.209-2.736-15.668,0.352
			c-7.457,3.079-12.527,7.929-11.334,10.818C355.573,234.702,362.585,234.549,370.043,231.466z"/>
	</g>
	<g>
		<path fill="#F2F2C4" d="M353.401,249.317c4.927,6.392,10.937,10.021,13.407,8.108c2.479-1.903,0.493-8.636-4.438-15.027
			c-4.926-6.392-10.929-10.021-13.404-8.113C346.486,236.197,348.471,242.929,353.401,249.317z"/>
	</g>
	<g>
		<path fill="#D8D6AA" d="M359.506,221.326c8.062-0.381,14.477-3.22,14.325-6.346c-0.144-3.122-6.795-5.354-14.859-4.973
			c-8.059,0.382-14.474,3.221-14.323,6.346C344.792,219.479,351.443,221.704,359.506,221.326z"/>
	</g>
	<g>
		<path fill="#D8D6AA" d="M341.839,230.943c8.06-0.378,14.476-3.221,14.329-6.346c-0.15-3.125-6.804-5.354-14.864-4.973
			c-8.056,0.382-14.474,3.218-14.323,6.343C327.124,229.092,333.778,231.32,341.839,230.943z"/>
	</g>
	<g>
		<path fill="#D8D6AA" d="M344.781,248.115c7.494-3.007,12.615-7.8,11.446-10.704c-1.168-2.904-8.183-2.816-15.669,0.191
			c-7.481,3.011-12.61,7.804-11.446,10.704C330.28,251.209,337.298,251.126,344.781,248.115z"/>
	</g>
	<g>
		<path fill="#FAFAEE" d="M369.855,214.175c-2.76,7.582-2.614,14.596,0.323,15.668c2.942,1.069,7.562-4.209,10.323-11.795
			c2.758-7.579,2.614-14.593-0.325-15.665C377.235,201.315,372.614,206.592,369.855,214.175z"/>
	</g>
	<g>
		<path fill="#FAFAEE" d="M350.848,227.054c-2.763,7.578-2.616,14.596,0.321,15.665c2.942,1.072,7.563-4.205,10.322-11.792
			c2.763-7.578,2.614-14.592-0.32-15.664C358.224,214.19,353.61,219.468,350.848,227.054z"/>
	</g>
	<g>
		<path fill="#FAFAEE" d="M330.051,221.895c-2.763,7.583-2.617,14.596,0.321,15.669c2.941,1.068,7.562-4.209,10.322-11.795
			c2.759-7.583,2.608-14.593-0.324-15.665C337.432,209.031,332.81,214.312,330.051,221.895z"/>
	</g>
	<g>
		<path fill="#B7B67B" d="M333.161,271.538c6.14,5.235,12.764,7.551,14.792,5.17c2.032-2.385-1.299-8.552-7.442-13.795
			c-6.137-5.235-12.758-7.547-14.787-5.169C323.693,260.124,327.021,266.293,333.161,271.538z"/>
	</g>
	<g>
		<path fill="#B7B67B" d="M334.76,304.698c7.822-1.987,13.539-6.054,12.77-9.089c-0.771-3.03-7.731-3.883-15.559-1.896
			c-7.818,1.982-13.531,6.057-12.769,9.086C319.977,305.832,326.941,306.684,334.76,304.698z"/>
	</g>
	<g>
		<path fill="#B7B67B" d="M349.204,292.369c7.91,1.58,14.824,0.378,15.438-2.689c0.611-3.068-5.303-6.835-13.223-8.42
			c-7.906-1.58-14.82-0.377-15.435,2.691C335.374,287.02,341.284,290.789,349.204,292.369z"/>
	</g>
	<g>
		<path fill="#F2F2C4" d="M343.112,267.779c4.927,6.392,10.934,10.021,13.41,8.109c2.473-1.912,0.487-8.641-4.438-15.027
			c-4.925-6.389-10.928-10.021-13.408-8.113C336.197,254.659,338.183,261.391,343.112,267.779z"/>
	</g>
	<g>
		<path fill="#F2F2C4" d="M333.65,283.867c7.455-3.083,12.526-7.934,11.335-10.822c-1.196-2.888-8.216-2.734-15.667,0.352
			c-7.46,3.084-12.532,7.931-11.337,10.817C319.175,287.104,326.192,286.95,333.65,283.867z"/>
	</g>
	<g>
		<path fill="#F2F2C4" d="M356.885,280.111c7.457-3.084,12.532-7.93,11.339-10.816c-1.195-2.891-8.209-2.732-15.669,0.352
			c-7.453,3.078-12.531,7.934-11.339,10.812C342.414,283.355,349.429,283.203,356.885,280.111z"/>
	</g>
	<g>
		<path fill="#F2F2C4" d="M340.247,297.971c4.927,6.387,10.93,10.018,13.41,8.105c2.472-1.908,0.486-8.637-4.438-15.028
			c-4.927-6.388-10.932-10.021-13.413-8.108C333.332,284.852,335.321,291.579,340.247,297.971z"/>
	</g>
	<g>
		<path fill="#D8D6AA" d="M346.349,269.977c8.063-0.377,14.479-3.222,14.334-6.342c-0.148-3.126-6.805-5.355-14.866-4.978
			c-8.062,0.383-14.472,3.222-14.325,6.347C331.639,268.13,338.287,270.354,346.349,269.977z"/>
	</g>
	<g>
		<path fill="#D8D6AA" d="M328.678,279.598c8.067-0.384,14.481-3.223,14.332-6.347c-0.144-3.127-6.797-5.354-14.863-4.978
			c-8.057,0.379-14.471,3.221-14.325,6.344C313.971,277.742,320.621,279.975,328.678,279.598z"/>
	</g>
	<g>
		<path fill="#D8D6AA" d="M331.631,296.77c7.483-3.012,12.608-7.801,11.444-10.707c-1.164-2.904-8.182-2.82-15.676,0.192
			c-7.484,3.009-12.605,7.802-11.438,10.7C317.126,299.864,324.14,299.779,331.631,296.77z"/>
	</g>
	<g>
		<path fill="#FAFAEE" d="M316.89,270.545c-2.76,7.583-2.613,14.602,0.328,15.669c2.935,1.067,7.562-4.206,10.322-11.797
			c2.755-7.578,2.613-14.591-0.329-15.66C324.273,257.686,319.653,262.962,316.89,270.545z"/>
	</g>
	<g>
		<path fill="#B7B67B" d="M355.593,197.262c6.144,5.232,12.764,7.552,14.794,5.17c2.03-2.381-1.299-8.555-7.441-13.794
			c-6.137-5.232-12.757-7.552-14.787-5.171C346.125,185.849,349.456,192.023,355.593,197.262z"/>
	</g>
	<g>
		<path fill="#B7B67B" d="M357.194,230.424c7.822-1.988,13.539-6.056,12.769-9.09c-0.771-3.03-7.73-3.877-15.558-1.896
			c-7.819,1.988-13.536,6.057-12.771,9.086C342.411,231.557,349.371,232.408,357.194,230.424z"/>
	</g>
	<g>
		<path fill="#B7B67B" d="M371.639,218.094c7.913,1.583,14.823,0.377,15.439-2.691c0.609-3.067-5.311-6.834-13.226-8.417
			c-7.904-1.58-14.815-0.374-15.434,2.69C357.808,212.744,363.719,216.514,371.639,218.094z"/>
	</g>
	<g>
		<path fill="#F2F2C4" d="M365.543,193.5c4.928,6.392,10.933,10.024,13.413,8.113c2.474-1.908,0.489-8.636-4.438-15.028
			c-4.925-6.391-10.928-10.021-13.408-8.112C358.632,180.384,360.617,187.112,365.543,193.5z"/>
	</g>
	<g>
		<path fill="#F2F2C4" d="M356.084,209.592c7.453-3.083,12.528-7.934,11.333-10.822c-1.194-2.889-8.211-2.732-15.669,0.351
			c-7.456,3.083-12.526,7.929-11.333,10.818C341.609,212.832,348.623,212.675,356.084,209.592z"/>
	</g>
	<g>
		
			<ellipse transform="matrix(0.9241 -0.3822 0.3822 0.9241 -48.0414 159.372)" fill="#F2F2C4" cx="377.138" cy="200.612" rx="14.613" ry="5.666"/>
	</g>
	<g>
		<path fill="#F2F2C4" d="M362.681,223.696c4.925,6.392,10.927,10.021,13.41,8.109c2.474-1.912,0.488-8.639-4.438-15.032
			c-4.925-6.388-10.933-10.021-13.409-8.108C355.766,210.576,357.751,217.304,362.681,223.696z"/>
	</g>
	<g>
		<path fill="#D8D6AA" d="M368.78,195.702c8.065-0.378,14.479-3.221,14.332-6.346c-0.146-3.122-6.796-5.35-14.863-4.973
			c-8.06,0.377-14.474,3.221-14.325,6.346C354.068,193.854,360.725,196.08,368.78,195.702z"/>
	</g>
	<g>
		<path fill="#B7B67B" d="M309.394,191c6.142,5.236,12.767,7.556,14.797,5.171c2.029-2.378-1.302-8.548-7.44-13.792
			c-6.137-5.235-12.762-7.552-14.791-5.171C299.931,179.586,303.254,185.765,309.394,191z"/>
	</g>
	<g>
		<path fill="#B7B67B" d="M310.994,224.161c7.826-1.988,13.543-6.052,12.769-9.085c-0.771-3.034-7.73-3.881-15.559-1.897
			c-7.819,1.988-13.531,6.057-12.769,9.083C296.21,225.294,303.171,226.146,310.994,224.161z"/>
	</g>
	<g>
		<path fill="#B7B67B" d="M325.438,211.835c7.913,1.58,14.825,0.378,15.438-2.694c0.615-3.064-5.299-6.834-13.222-8.418
			c-7.906-1.58-14.817-0.374-15.433,2.69C311.604,206.482,317.522,210.256,325.438,211.835z"/>
	</g>
	<g>
		<path fill="#F2F2C4" d="M319.347,187.246c4.928,6.388,10.935,10.017,13.406,8.109c2.478-1.912,0.495-8.639-4.438-15.031
			c-4.929-6.388-10.93-10.021-13.402-8.109C312.429,174.126,314.417,180.853,319.347,187.246z"/>
	</g>
	<g>
		<path fill="#F2F2C4" d="M309.88,203.33c7.456-3.083,12.531-7.93,11.337-10.818c-1.193-2.889-8.208-2.736-15.668,0.351
			c-7.453,3.08-12.533,7.93-11.338,10.819C295.409,206.57,302.423,206.417,309.88,203.33z"/>
	</g>
	<g>
		<path fill="#F2F2C4" d="M333.114,199.579c7.461-3.083,12.535-7.93,11.342-10.818c-1.198-2.889-8.208-2.737-15.664,0.351
			c-7.457,3.08-12.536,7.929-11.338,10.818C318.648,202.819,325.663,202.666,333.114,199.579z"/>
	</g>
	<g>
		<path fill="#F2F2C4" d="M316.478,217.434c4.927,6.388,10.935,10.021,13.41,8.109c2.477-1.909,0.491-8.636-4.438-15.028
			c-4.928-6.392-10.931-10.021-13.406-8.114C309.566,204.314,311.551,211.042,316.478,217.434z"/>
	</g>
	<g>
		<path fill="#D8D6AA" d="M322.579,189.444c8.062-0.382,14.481-3.221,14.332-6.347c-0.145-3.125-6.799-5.354-14.861-4.973
			c-8.061,0.378-14.476,3.217-14.33,6.343C307.868,187.593,314.52,189.821,322.579,189.444z"/>
	</g>
	<g>
		<path fill="#D8D6AA" d="M304.915,199.06c8.062-0.381,14.474-3.22,14.329-6.346c-0.146-3.125-6.797-5.354-14.864-4.975
			c-8.056,0.385-14.476,3.22-14.325,6.345C290.201,197.208,296.855,199.438,304.915,199.06z"/>
	</g>
	<g>
		<path fill="#D8D6AA" d="M307.861,216.232c7.486-3.007,12.614-7.8,11.447-10.704c-1.169-2.904-8.186-2.816-15.673,0.191
			c-7.483,3.011-12.612,7.799-11.444,10.703C293.359,219.327,300.378,219.243,307.861,216.232z"/>
	</g>
	<g>
		<path fill="#FAFAEE" d="M340.293,178.942c-7.529-2.896-14.547-2.881-15.669,0.042c-1.126,2.919,4.067,7.636,11.604,10.536
			c7.526,2.896,14.544,2.881,15.67-0.042C353.023,186.559,347.829,181.842,340.293,178.942z"/>
	</g>
	<g>
		<path fill="#FAFAEE" d="M313.925,195.171c-2.764,7.579-2.619,14.597,0.323,15.666c2.938,1.072,7.561-4.206,10.323-11.792
			c2.759-7.579,2.609-14.596-0.325-15.664C321.309,182.308,316.683,187.585,313.925,195.171z"/>
	</g>
	<g>
		<path fill="#FAFAEE" d="M298.218,186.288c-8.06,0.329-14.493,3.129-14.366,6.255c0.129,3.125,6.766,5.396,14.832,5.067
			c8.06-0.332,14.493-3.133,14.364-6.259C312.92,188.226,306.281,185.956,298.218,186.288z"/>
	</g>
	<g>
		<path fill="#B7B67B" d="M299.306,233.098c6.145,5.236,12.766,7.552,14.798,5.171c2.027-2.376-1.302-8.551-7.444-13.794
			c-6.137-5.235-12.757-7.548-14.791-5.17C289.841,221.685,293.173,227.859,299.306,233.098z"/>
	</g>
	<g>
		<path fill="#B7B67B" d="M300.908,266.256c7.822-1.988,13.54-6.053,12.768-9.086c-0.771-3.029-7.73-3.877-15.558-1.896
			c-7.823,1.988-13.531,6.053-12.769,9.086C286.121,267.393,293.086,268.244,300.908,266.256z"/>
	</g>
	<g>
		<path fill="#B7B67B" d="M315.352,253.934c7.91,1.58,14.82,0.379,15.44-2.694c0.609-3.067-5.305-6.834-13.224-8.417
			c-7.906-1.583-14.821-0.377-15.436,2.69C301.521,248.581,307.434,252.35,315.352,253.934z"/>
	</g>
	<g>
		<path fill="#F2F2C4" d="M309.257,229.339c4.928,6.389,10.934,10.022,13.414,8.105c2.473-1.908,0.487-8.635-4.438-15.027
			c-4.931-6.388-10.934-10.018-13.409-8.109C302.347,216.221,304.331,222.952,309.257,229.339z"/>
	</g>
	<g>
		
			<ellipse transform="matrix(0.9239 -0.3826 0.3826 0.9239 -69.2494 132.1456)" fill="#F2F2C4" cx="297.622" cy="240.183" rx="14.611" ry="5.665"/>
	</g>
	<g>
		<path fill="#F2F2C4" d="M323.032,241.673c7.458-3.083,12.533-7.925,11.334-10.818c-1.193-2.889-8.208-2.733-15.664,0.351
			c-7.457,3.079-12.532,7.929-11.337,10.818C308.562,244.917,315.573,244.761,323.032,241.673z"/>
	</g>
	<g>
		<path fill="#F2F2C4" d="M306.392,259.533c4.931,6.383,10.934,10.021,13.414,8.104c2.473-1.908,0.486-8.636-4.438-15.027
			c-4.927-6.387-10.938-10.018-13.409-8.108C299.48,246.409,301.465,253.137,306.392,259.533z"/>
	</g>
	<g>
		<path fill="#D8D6AA" d="M312.493,231.538c8.066-0.382,14.48-3.221,14.334-6.346s-6.797-5.35-14.864-4.972
			c-8.056,0.382-14.475,3.221-14.329,6.346C297.782,229.687,304.438,231.919,312.493,231.538z"/>
	</g>
	<g>
		<path fill="#D8D6AA" d="M294.828,241.154c8.063-0.377,14.479-3.221,14.333-6.346c-0.147-3.125-6.803-5.35-14.865-4.972
			c-8.062,0.378-14.473,3.221-14.325,6.346C280.114,239.304,286.77,241.532,294.828,241.154z"/>
	</g>
	<g>
		<path fill="#D8D6AA" d="M297.774,258.33c7.486-3.012,12.611-7.803,11.448-10.708c-1.168-2.9-8.182-2.816-15.677,0.191
			c-7.483,3.011-12.608,7.805-11.44,10.705C283.273,261.42,290.287,261.337,297.774,258.33z"/>
	</g>
	<g>
		<path fill="#FAFAEE" d="M283.038,232.106c-2.761,7.582-2.614,14.596,0.328,15.669c2.934,1.072,7.556-4.209,10.321-11.792
			c2.76-7.582,2.613-14.597-0.328-15.668C290.419,219.243,285.797,224.524,283.038,232.106z"/>
	</g>
	<g>
		<path fill="#B7B67B" d="M289.219,275.221c6.141,5.237,12.766,7.555,14.795,5.17c2.026-2.373-1.3-8.548-7.443-13.793
			c-6.137-5.234-12.758-7.547-14.791-5.168C279.753,263.807,283.079,269.984,289.219,275.221z"/>
	</g>
	<g>
		<path fill="#B7B67B" d="M290.818,308.381c7.826-1.984,13.543-6.053,12.768-9.086c-0.771-3.033-7.734-3.877-15.562-1.893
			c-7.813,1.982-13.526,6.052-12.765,9.082C276.035,309.514,282.995,310.366,290.818,308.381z"/>
	</g>
	<g>
		<path fill="#B7B67B" d="M305.262,296.059c7.915,1.58,14.821,0.379,15.437-2.697c0.614-3.063-5.301-6.834-13.218-8.413
			c-7.906-1.58-14.818-0.376-15.434,2.692C291.43,290.708,297.348,294.475,305.262,296.059z"/>
	</g>
	<g>
		<path fill="#F2F2C4" d="M299.173,271.464c4.926,6.392,10.934,10.021,13.404,8.109c2.477-1.907,0.493-8.64-4.438-15.026
			c-4.926-6.393-10.929-10.021-13.402-8.109C292.254,258.35,294.241,265.073,299.173,271.464z"/>
	</g>
	<g>
		<path fill="#F2F2C4" d="M289.704,287.549c7.457-3.084,12.527-7.927,11.338-10.818c-1.199-2.889-8.208-2.731-15.669,0.354
			c-7.456,3.08-12.532,7.927-11.338,10.815C275.234,290.789,282.249,290.636,289.704,287.549z"/>
	</g>
	<g>
		<path fill="#F2F2C4" d="M312.94,283.802c7.459-3.088,12.534-7.934,11.34-10.821c-1.197-2.891-8.208-2.737-15.663,0.354
			c-7.457,3.079-12.537,7.924-11.342,10.817C298.473,287.038,305.483,286.885,312.94,283.802z"/>
	</g>
	<g>
		<path fill="#F2F2C4" d="M296.302,301.654c4.927,6.392,10.935,10.023,13.41,8.111c2.473-1.908,0.492-8.639-4.438-15.031
			c-4.928-6.392-10.931-10.017-13.406-8.108C289.387,288.538,291.376,295.266,296.302,301.654z"/>
	</g>
	<g>
		<path fill="#D8D6AA" d="M302.404,273.663c8.062-0.378,14.478-3.222,14.332-6.347c-0.148-3.127-6.801-5.351-14.864-4.969
			c-8.06,0.379-14.474,3.219-14.328,6.342C287.693,271.816,294.344,274.041,302.404,273.663z"/>
	</g>
	<g>
		<path fill="#D8D6AA" d="M284.74,283.279c8.059-0.377,14.474-3.221,14.329-6.348c-0.149-3.123-6.8-5.35-14.864-4.967
			c-8.059,0.377-14.475,3.217-14.329,6.342C270.023,281.432,276.682,283.656,284.74,283.279z"/>
	</g>
	<g>
		<path fill="#D8D6AA" d="M287.688,300.455c7.485-3.01,12.613-7.803,11.442-10.703c-1.164-2.904-8.182-2.816-15.669,0.188
			c-7.482,3.015-12.611,7.804-11.443,10.707C273.186,303.545,280.198,303.462,287.688,300.455z"/>
	</g>
	<g>
		<path fill="#FAFAEE" d="M272.947,274.232c-2.758,7.582-2.617,14.597,0.324,15.668c2.942,1.068,7.562-4.209,10.324-11.791
			s2.616-14.598-0.326-15.67C280.332,261.371,275.707,266.65,272.947,274.232z"/>
	</g>
	<g>
		<path fill="#B7B67B" d="M420.551,241.169c6.145,5.236,12.761,7.552,14.795,5.171c2.026-2.382-1.3-8.552-7.44-13.795
			c-6.136-5.232-12.764-7.548-14.789-5.17C411.08,229.756,414.411,235.93,420.551,241.169z"/>
	</g>
	<g>
		<path fill="#B7B67B" d="M422.153,274.331c7.819-1.988,13.536-6.058,12.765-9.09c-0.766-3.029-7.726-3.882-15.554-1.892
			c-7.822,1.981-13.538,6.051-12.772,9.08C407.363,275.463,414.327,276.316,422.153,274.331z"/>
	</g>
	<g>
		<path fill="#B7B67B" d="M436.594,262.004c7.914,1.581,14.826,0.378,15.439-2.693c0.609-3.062-5.301-6.836-13.223-8.418
			c-7.91-1.583-14.821-0.373-15.437,2.691C422.769,256.65,428.68,260.42,436.594,262.004z"/>
	</g>
	<g>
		<path fill="#F2F2C4" d="M430.504,237.411c4.927,6.392,10.929,10.021,13.41,8.113c2.476-1.912,0.491-8.639-4.436-15.031
			c-4.932-6.389-10.938-10.021-13.413-8.113C423.593,224.292,425.577,231.019,430.504,237.411z"/>
	</g>
	<g>
		<path fill="#F2F2C4" d="M421.039,253.499c7.454-3.086,12.533-7.929,11.338-10.818c-1.198-2.893-8.211-2.736-15.669,0.347
			c-7.456,3.083-12.531,7.93-11.337,10.818C406.566,256.734,413.579,256.583,421.039,253.499z"/>
	</g>
	<g>
		<path fill="#F2F2C4" d="M444.279,249.748c7.456-3.083,12.526-7.929,11.333-10.822c-1.193-2.889-8.208-2.736-15.668,0.354
			c-7.456,3.08-12.532,7.927-11.333,10.814C429.805,252.984,436.822,252.833,444.279,249.748z"/>
	</g>
	<g>
		<path fill="#F2F2C4" d="M427.638,267.604c4.929,6.387,10.935,10.021,13.404,8.108c2.481-1.911,0.498-8.64-4.437-15.026
			c-4.928-6.394-10.931-10.022-13.406-8.113C420.724,254.484,422.708,261.211,427.638,267.604z"/>
	</g>
	<g>
		<path fill="#D8D6AA" d="M433.739,239.612c8.06-0.382,14.477-3.221,14.329-6.35c-0.146-3.122-6.801-5.35-14.864-4.972
			c-8.054,0.382-14.47,3.221-14.325,6.342C419.029,237.762,425.68,239.99,433.739,239.612z"/>
	</g>
	<g>
		<path fill="#D8D6AA" d="M416.071,249.225c8.062-0.378,14.478-3.216,14.33-6.346c-0.146-3.121-6.798-5.35-14.86-4.972
			c-8.06,0.382-14.474,3.221-14.325,6.347C401.36,247.378,408.013,249.607,416.071,249.225z"/>
	</g>
	<g>
		<path fill="#D8D6AA" d="M419.018,266.4c7.486-3.012,12.61-7.805,11.447-10.707c-1.167-2.899-8.182-2.815-15.672,0.195
			c-7.482,3.006-12.604,7.799-11.443,10.699C404.516,269.492,411.53,269.409,419.018,266.4z"/>
	</g>
	<g>
		<path fill="#FAFAEE" d="M429.461,241.688c-7.953,1.343-13.98,4.93-13.467,8.018c0.527,3.083,7.396,4.5,15.355,3.155
			c7.952-1.344,13.981-4.93,13.463-8.013C444.291,241.765,437.422,240.346,429.461,241.688z"/>
	</g>
	<g>
		<path fill="#FAFAEE" d="M407.806,236.747c-7.649,2.564-13.051,7.052-12.051,10.017c0.992,2.965,8.006,3.29,15.657,0.726
			c7.643-2.569,13.038-7.052,12.047-10.018C422.468,234.503,415.457,234.178,407.806,236.747z"/>
	</g>
	<g>
		<path fill="#B7B67B" d="M262.557,180.491c6.141,5.235,12.766,7.552,14.795,5.171c2.03-2.382-1.297-8.552-7.439-13.795
			c-6.137-5.235-12.762-7.547-14.795-5.17C253.085,169.077,256.416,175.252,262.557,180.491z"/>
	</g>
	<g>
		<path fill="#B7B67B" d="M264.157,213.648c7.825-1.984,13.538-6.052,12.767-9.086c-0.771-3.03-7.73-3.877-15.562-1.892
			c-7.814,1.984-13.53,6.052-12.768,9.082C249.365,214.785,256.333,215.636,264.157,213.648z"/>
	</g>
	<g>
		<path fill="#B7B67B" d="M278.602,201.327c7.914,1.576,14.819,0.374,15.434-2.694c0.615-3.065-5.299-6.835-13.219-8.418
			c-7.905-1.584-14.816-0.374-15.433,2.69C264.771,195.973,270.686,199.743,278.602,201.327z"/>
	</g>
	<g>
		<path fill="#F2F2C4" d="M272.509,176.732c4.927,6.392,10.935,10.021,13.41,8.109c2.474-1.908,0.491-8.639-4.438-15.031
			c-4.93-6.388-10.933-10.017-13.404-8.109C265.594,163.613,267.579,170.341,272.509,176.732z"/>
	</g>
	<g>
		<path fill="#F2F2C4" d="M263.042,192.817c7.456-3.083,12.531-7.926,11.337-10.814c-1.193-2.893-8.208-2.736-15.664,0.347
			c-7.465,3.083-12.544,7.929-11.346,10.822C248.563,196.061,255.585,195.908,263.042,192.817z"/>
	</g>
	<g>
		<path fill="#F2F2C4" d="M286.279,189.069c7.459-3.083,12.533-7.93,11.339-10.818c-1.198-2.893-8.207-2.736-15.665,0.348
			c-7.456,3.08-12.535,7.929-11.342,10.818C271.814,192.305,278.82,192.153,286.279,189.069z"/>
	</g>
	<g>
		<path fill="#F2F2C4" d="M269.641,206.921c4.926,6.392,10.934,10.024,13.414,8.113c2.473-1.912,0.486-8.639-4.443-15.027
			c-4.924-6.392-10.93-10.021-13.405-8.113C262.729,193.805,264.713,200.533,269.641,206.921z"/>
	</g>
	<g>
		<path fill="#D8D6AA" d="M275.745,178.931c8.063-0.382,14.476-3.217,14.328-6.346c-0.148-3.122-6.8-5.35-14.861-4.972
			c-8.062,0.381-14.476,3.22-14.329,6.345S267.682,179.312,275.745,178.931z"/>
	</g>
	<g>
		<path fill="#D8D6AA" d="M258.077,188.547c8.062-0.378,14.478-3.217,14.329-6.347c-0.146-3.121-6.801-5.349-14.864-4.972
			c-8.063,0.381-14.484,3.221-14.336,6.346C243.352,186.696,250.011,188.928,258.077,188.547z"/>
	</g>
	<g>
		<path fill="#D8D6AA" d="M261.023,205.723c7.486-3.011,12.615-7.804,11.447-10.708c-1.169-2.9-8.186-2.817-15.673,0.19
			c-7.487,3.011-12.619,7.804-11.451,10.704C246.51,208.817,253.531,208.73,261.023,205.723z"/>
	</g>
	<g>
		<path fill="#FAFAEE" d="M293.312,168.375c-7.607-2.687-14.619-2.481-15.664,0.473c-1.041,2.942,4.277,7.518,11.888,10.212
			c7.606,2.69,14.619,2.481,15.657-0.466C306.239,175.645,300.92,171.073,293.312,168.375z"/>
	</g>
	<g>
		<path fill="#FAFAEE" d="M231.445,202.139c-2.759,7.579-2.61,14.593,0.325,15.665c2.941,1.072,7.559-4.206,10.326-11.792
			c2.758-7.579,2.617-14.597-0.325-15.666C238.829,189.275,234.208,194.553,231.445,202.139z"/>
	</g>
	<g>
		<path fill="#B7B67B" d="M268.586,218.846c6.137,5.235,12.762,7.552,14.796,5.17c2.025-2.377-1.303-8.552-7.444-13.792
			c-6.138-5.239-12.763-7.552-14.791-5.174C259.115,207.432,262.441,213.61,268.586,218.846z"/>
	</g>
	<g>
		<path fill="#B7B67B" d="M270.188,252.007c7.816-1.989,13.537-6.052,12.768-9.09c-0.771-3.029-7.73-3.876-15.562-1.893
			c-7.815,1.984-13.535,6.052-12.765,9.082C255.395,253.137,262.357,253.992,270.188,252.007z"/>
	</g>
	<g>
		<path fill="#B7B67B" d="M284.626,239.681c7.914,1.581,14.824,0.375,15.438-2.693c0.613-3.068-5.301-6.834-13.219-8.418
			c-7.91-1.58-14.822-0.377-15.441,2.69C270.796,234.327,276.711,238.101,284.626,239.681z"/>
	</g>
	<g>
		<path fill="#F2F2C4" d="M278.534,215.087c4.927,6.392,10.934,10.021,13.409,8.108c2.478-1.911,0.492-8.64-4.438-15.027
			c-4.925-6.387-10.933-10.021-13.408-8.109C271.619,201.971,273.604,208.699,278.534,215.087z"/>
	</g>
	<g>
		<path fill="#F2F2C4" d="M269.066,231.171c7.457-3.08,12.535-7.926,11.341-10.818c-1.2-2.889-8.208-2.732-15.669,0.351
			c-7.455,3.084-12.535,7.93-11.34,10.823C254.598,234.416,261.609,234.262,269.066,231.171z"/>
	</g>
	<g>
		<path fill="#F2F2C4" d="M275.669,245.275c4.927,6.392,10.933,10.024,13.406,8.112c2.479-1.906,0.491-8.635-4.438-15.026
			c-4.928-6.392-10.93-10.021-13.4-8.113C268.754,232.16,270.734,238.887,275.669,245.275z"/>
	</g>
	<g>
		<path fill="#D8D6AA" d="M259.177,231.496c8.06-0.377,14.474-3.217,14.328-6.342c-0.149-3.125-6.8-5.354-14.858-4.977
			c-8.063,0.382-14.484,3.221-14.337,6.346C244.454,229.649,251.111,231.877,259.177,231.496z"/>
	</g>
	<g>
		<path fill="#D8D6AA" d="M259.923,242.853c7.488-3.011,12.608-7.804,11.446-10.708c-1.164-2.899-8.18-2.812-15.674,0.194
			c-7.487,3.007-12.615,7.8-11.448,10.704C245.412,245.947,252.43,245.863,259.923,242.853z"/>
	</g>
	<g>
		<path fill="#B7B67B" d="M252.465,259.18c6.146,5.239,12.768,7.557,14.799,5.172c2.032-2.373-1.3-8.547-7.443-13.791
			c-6.139-5.231-12.764-7.547-14.793-5.17C242.992,247.771,246.328,253.945,252.465,259.18z"/>
	</g>
	<g>
		<path fill="#B7B67B" d="M254.066,292.342c7.826-1.984,13.543-6.053,12.769-9.086c-0.769-3.033-7.729-3.877-15.558-1.893
			s-13.544,6.051-12.78,9.082C239.276,293.477,246.239,294.327,254.066,292.342z"/>
	</g>
	<g>
		<path fill="#B7B67B" d="M268.514,280.02c7.91,1.58,14.821,0.375,15.44-2.697c0.608-3.063-5.306-6.834-13.228-8.414
			c-7.906-1.58-14.817-0.377-15.432,2.689C254.686,274.669,260.596,278.432,268.514,280.02z"/>
	</g>
	<g>
		<path fill="#F2F2C4" d="M262.419,255.426c4.929,6.393,10.937,10.021,13.409,8.109c2.479-1.909,0.494-8.641-4.434-15.028
			c-4.927-6.392-10.934-10.021-13.41-8.109C255.51,242.307,257.494,249.034,262.419,255.426z"/>
	</g>
	<g>
		<path fill="#F2F2C4" d="M252.956,271.511c7.461-3.085,12.53-7.926,11.337-10.817c-1.193-2.891-8.211-2.732-15.676,0.35
			c-7.461,3.084-12.539,7.93-11.342,10.818C238.472,274.75,245.491,274.598,252.956,271.511z"/>
	</g>
	<g>
		<path fill="#F2F2C4" d="M276.193,267.764c7.459-3.088,12.529-7.935,11.336-10.822c-1.194-2.891-8.209-2.732-15.666,0.351
			c-7.456,3.084-12.531,7.931-11.336,10.823C261.727,271,268.739,270.848,276.193,267.764z"/>
	</g>
	<g>
		<path fill="#F2F2C4" d="M259.555,285.615c4.93,6.393,10.932,10.021,13.412,8.111c2.473-1.908,0.489-8.639-4.438-15.029
			c-4.928-6.391-10.934-10.018-13.413-8.11C252.641,272.499,254.628,279.227,259.555,285.615z"/>
	</g>
	<g>
		<path fill="#D8D6AA" d="M265.66,257.625c8.061-0.379,14.477-3.223,14.333-6.344c-0.15-3.125-6.806-5.354-14.868-4.972
			c-8.059,0.377-14.479,3.216-14.333,6.341C250.938,255.777,257.598,258.002,265.66,257.625z"/>
	</g>
	<g>
		<path fill="#D8D6AA" d="M247.983,267.241c8.072-0.378,14.486-3.222,14.335-6.349c-0.144-3.123-6.793-5.349-14.864-4.968
			c-8.067,0.38-14.482,3.218-14.337,6.345C233.266,265.393,239.916,267.619,247.983,267.241z"/>
	</g>
	<g>
		<path fill="#D8D6AA" d="M250.934,284.416c7.49-3.01,12.615-7.805,11.452-10.707c-1.167-2.9-8.186-2.812-15.685,0.191
			c-7.486,3.01-12.611,7.803-11.444,10.707C236.426,287.507,243.438,287.424,250.934,284.416z"/>
	</g>
	<g>
		<path fill="#FAFAEE" d="M256.997,263.352c-2.765,7.584-2.617,14.598,0.328,15.67c2.938,1.066,7.56-4.209,10.321-11.797
			c2.76-7.578,2.615-14.593-0.328-15.664C264.382,250.492,259.76,255.773,256.997,263.352z"/>
	</g>
	<g>
		<path fill="#B7B67B" d="M252.141,277.893c6.139,5.233,12.764,7.553,14.795,5.17c2.028-2.379-1.303-8.553-7.441-13.793
			c-6.141-5.234-12.77-7.552-14.803-5.174C242.66,266.479,245.988,272.656,252.141,277.893z"/>
	</g>
	<g>
		<path fill="#B7B67B" d="M253.738,311.048c7.822-1.979,13.539-6.049,12.771-9.082c-0.774-3.032-7.735-3.881-15.563-1.893
			c-7.823,1.979-13.544,6.052-12.773,9.077C238.94,312.186,245.904,313.037,253.738,311.048z"/>
	</g>
	<g>
		<path fill="#B7B67B" d="M268.18,298.73c7.918,1.58,14.827,0.373,15.442-2.698c0.608-3.064-5.302-6.835-13.22-8.414
			c-7.914-1.584-14.825-0.378-15.442,2.69C254.35,293.376,260.268,297.146,268.18,298.73z"/>
	</g>
	<g>
		<path fill="#F2F2C4" d="M262.091,274.133c4.933,6.393,10.935,10.023,13.405,8.111c2.48-1.908,0.498-8.639-4.434-15.03
			c-4.931-6.392-10.934-10.019-13.41-8.11C255.178,261.016,257.162,267.744,262.091,274.133z"/>
	</g>
	<g>
		<path fill="#F2F2C4" d="M252.616,290.221c7.464-3.088,12.538-7.927,11.345-10.822c-1.197-2.885-8.208-2.731-15.673,0.354
			c-7.464,3.079-12.542,7.931-11.345,10.817C238.143,293.46,245.156,293.307,252.616,290.221z"/>
	</g>
	<g>
		<path fill="#F2F2C4" d="M275.861,286.469c7.459-3.084,12.537-7.93,11.34-10.816c-1.198-2.895-8.208-2.737-15.669,0.354
			c-7.457,3.079-12.528,7.922-11.334,10.814C261.395,289.709,268.407,289.552,275.861,286.469z"/>
	</g>
	<g>
		<path fill="#F2F2C4" d="M259.223,304.325c4.926,6.392,10.936,10.024,13.408,8.112c2.477-1.912,0.493-8.64-4.438-15.031
			c-4.926-6.393-10.93-10.018-13.405-8.108C252.307,291.206,254.291,297.934,259.223,304.325z"/>
	</g>
	<g>
		<path fill="#D8D6AA" d="M265.327,276.33c8.062-0.377,14.475-3.217,14.325-6.346c-0.146-3.121-6.797-5.348-14.859-4.969
			c-8.059,0.377-14.478,3.221-14.333,6.342C250.604,274.488,257.266,276.711,265.327,276.33z"/>
	</g>
	<g>
		<path fill="#D8D6AA" d="M247.655,285.947c8.059-0.379,14.479-3.217,14.332-6.344c-0.144-3.125-6.803-5.35-14.864-4.973
			c-8.067,0.378-14.482,3.223-14.334,6.344C232.934,284.104,239.584,286.328,247.655,285.947z"/>
	</g>
	<g>
		<path fill="#D8D6AA" d="M249.305,178.488c7.498-3.011,12.619-7.8,11.452-10.705c-1.166-2.904-8.187-2.816-15.677,0.191
			c-7.491,3.007-12.616,7.8-11.452,10.704C234.795,181.583,241.816,181.499,249.305,178.488z"/>
	</g>
	<g>
		<path fill="#268340" d="M117.456,230.801c0,5.484-5.094,9.929-11.383,9.929c-6.284,0-11.379-4.445-11.379-9.929
			c0-5.483,5.095-9.933,11.379-9.933C112.362,220.868,117.456,225.318,117.456,230.801z"/>
	</g>
	<g>
		<path fill="#268340" d="M277.229,191.859c0,3.438-3.209,6.231-7.17,6.231c-3.965,0-7.172-2.794-7.172-6.231
			c0-3.438,3.207-6.229,7.172-6.229C274.02,185.631,277.229,188.421,277.229,191.859z"/>
	</g>
	<g>
		<path fill="#268340" d="M313.073,238.289c0,4.671-4.205,8.452-9.393,8.452c-5.182,0-9.386-3.781-9.386-8.452
			c0-4.667,4.204-8.453,9.386-8.453C308.868,229.836,313.073,233.622,313.073,238.289z"/>
	</g>
	<g>
		<path fill="#268340" d="M411.58,243.81c0,5.572-3.944,10.088-8.809,10.088c-4.86,0-8.805-4.517-8.805-10.088
			c0-5.567,3.943-10.086,8.805-10.086C407.636,233.724,411.58,238.243,411.58,243.81z"/>
	</g>
	<g>
		<path fill="#268340" d="M218.722,269.923c0,4.604-3.957,8.347-8.829,8.347c-4.874,0-8.831-3.74-8.831-8.347
			s3.957-8.342,8.831-8.342C214.765,261.582,218.722,265.318,218.722,269.923z"/>
	</g>
	<g>
		<ellipse fill="#268340" cx="206.663" cy="201.556" rx="8.833" ry="8.341"/>
	</g>
	<g>
		<path fill="#FAFAEE" d="M192.17,260.707c7.886,1.719,13.734,5.587,13.07,8.646c-0.668,3.057-7.597,4.142-15.485,2.42
			c-7.88-1.721-13.73-5.594-13.066-8.646C177.356,260.066,184.287,258.986,192.17,260.707z"/>
	</g>
	<g>
		<path fill="#D8D6AA" d="M106.077,244.39c-7.487-3.011-12.612-7.804-11.447-10.704c1.168-2.904,8.181-2.82,15.672,0.191
			c7.483,3.007,12.608,7.8,11.44,10.7C120.578,247.481,113.561,247.397,106.077,244.39z"/>
	</g>
	<g>
		<path fill="#B7B67B" d="M126.238,243.681c-7.914,1.58-14.822,0.377-15.436-2.695c-0.612-3.064,5.3-6.834,13.222-8.417
			c7.907-1.581,14.816-0.374,15.436,2.69C140.07,238.327,134.156,242.097,126.238,243.681z"/>
	</g>
	<g>
		<path fill="#FAFAEE" d="M271.91,192.245c8.035,0.706,14.775-1.248,15.05-4.366c0.276-3.118-6.021-6.216-14.06-6.926
			c-8.034-0.702-14.774,1.248-15.049,4.366C257.577,188.436,263.87,191.539,271.91,192.245z"/>
	</g>
	<g>
		<path fill="#F2F2C4" d="M391.141,245.63c4.932,6.392,10.935,10.021,13.409,8.109c2.478-1.908,0.498-8.636-4.437-15.028
			c-4.928-6.392-10.935-10.021-13.406-8.109C384.231,232.515,386.211,239.242,391.141,245.63z"/>
	</g>
	<g>
		<path fill="#B7B67B" d="M194.872,210.878c-7.913,1.579-14.825,0.377-15.439-2.694c-0.609-3.068,5.301-6.838,13.223-8.418
			c7.91-1.58,14.822-0.374,15.436,2.69C208.698,205.524,202.787,209.295,194.872,210.878z"/>
	</g>
	<g>
		<path fill="#B7B67B" d="M155.305,175.992c-6.144,5.232-12.765,7.552-14.799,5.171c-2.026-2.381,1.3-8.556,7.446-13.794
			c6.134-5.236,12.76-7.549,14.789-5.171C164.771,164.578,161.444,170.753,155.305,175.992z"/>
	</g>
	<g>
		<path fill="#F2F2C4" d="M145.353,172.229c-4.927,6.396-10.935,10.024-13.413,8.113c-2.474-1.908-0.489-8.635,4.441-15.027
			c4.927-6.392,10.93-10.021,13.406-8.113C152.263,159.114,150.282,165.845,145.353,172.229z"/>
	</g>
	<g>
		<path fill="#F2F2C4" d="M154.816,188.322c-7.453-3.083-12.532-7.93-11.338-10.823c1.199-2.888,8.212-2.732,15.669,0.352
			c7.457,3.083,12.531,7.93,11.338,10.818C169.286,191.562,162.271,191.405,154.816,188.322z"/>
	</g>
	<g>
		<path fill="#F2F2C4" d="M131.581,184.571c-7.461-3.083-12.536-7.93-11.338-10.823c1.193-2.888,8.208-2.732,15.665,0.351
			c7.455,3.084,12.531,7.93,11.336,10.818C146.051,187.81,139.036,187.654,131.581,184.571z"/>
	</g>
	<g>
		<path fill="#D8D6AA" d="M142.112,174.431c-8.06-0.377-14.475-3.216-14.325-6.345c0.145-3.122,6.797-5.35,14.86-4.973
			c8.059,0.378,14.473,3.221,14.324,6.346C156.827,172.584,150.176,174.812,142.112,174.431z"/>
	</g>
	<g>
		<path fill="#D8D6AA" d="M159.78,184.048c-8.059-0.378-14.478-3.221-14.329-6.346c0.149-3.122,6.8-5.35,14.867-4.968
			c8.055,0.374,14.472,3.221,14.321,6.342C174.496,182.2,167.839,184.429,159.78,184.048z"/>
	</g>
	<g>
		<path fill="#FAFAEE" d="M171.572,175c2.763,7.583,2.614,14.596-0.325,15.668c-2.938,1.069-7.559-4.208-10.321-11.791
			c-2.756-7.583-2.614-14.6,0.323-15.665C164.191,162.14,168.81,167.417,171.572,175z"/>
	</g>
	<g>
		<path fill="#B7B67B" d="M193.044,179.679c-6.144,5.235-12.764,7.552-14.794,5.17c-2.03-2.377,1.297-8.552,7.44-13.792
			c6.137-5.239,12.762-7.552,14.788-5.174C202.512,168.265,199.181,174.443,193.044,179.679z"/>
	</g>
	<g>
		<path fill="#F2F2C4" d="M183.094,175.92c-4.932,6.392-10.935,10.021-13.41,8.108c-2.477-1.908-0.493-8.639,4.438-15.027
			c4.923-6.387,10.93-10.021,13.406-8.113C190.003,162.804,188.019,169.532,183.094,175.92z"/>
	</g>
	<g>
		<path fill="#F2F2C4" d="M192.557,192.008c-7.458-3.084-12.532-7.934-11.339-10.823c1.2-2.888,8.217-2.732,15.669,0.351
			c7.457,3.084,12.532,7.93,11.339,10.823C207.03,195.248,200.013,195.095,192.557,192.008z"/>
	</g>
	<g>
		<path fill="#F2F2C4" d="M169.32,188.253c-7.46-3.084-12.535-7.927-11.337-10.815c1.194-2.893,8.209-2.736,15.665,0.348
			c7.455,3.083,12.535,7.934,11.337,10.822C183.787,191.496,176.772,191.344,169.32,188.253z"/>
	</g>
	<g>
		<path fill="#D8D6AA" d="M179.856,178.118c-8.063-0.377-14.478-3.217-14.333-6.346c0.148-3.125,6.804-5.35,14.864-4.973
			c8.059,0.382,14.473,3.221,14.329,6.346C194.566,176.271,187.916,178.5,179.856,178.118z"/>
	</g>
	<g>
		<path fill="#D8D6AA" d="M197.525,187.733c-8.067-0.377-14.479-3.216-14.334-6.346c0.149-3.121,6.796-5.35,14.863-4.972
			c8.061,0.378,14.475,3.221,14.329,6.346C212.235,185.887,205.579,188.115,197.525,187.733z"/>
	</g>
	<g>
		<path fill="#FAFAEE" d="M169.503,170.967c2.76,7.582,2.614,14.595-0.323,15.668c-2.942,1.072-7.56-4.209-10.323-11.792
			c-2.758-7.583-2.614-14.597,0.325-15.666C162.124,158.106,166.745,163.384,169.503,170.967z"/>
	</g>
	<g>
		<path fill="#FAFAEE" d="M188.515,183.845c2.763,7.582,2.614,14.597-0.328,15.669c-2.938,1.072-7.56-4.209-10.318-11.792
			c-2.759-7.582-2.614-14.596,0.324-15.664C181.135,170.986,185.752,176.263,188.515,183.845z"/>
	</g>
	<g>
		<path fill="#FAFAEE" d="M209.315,178.689c2.76,7.579,2.614,14.597-0.332,15.666c-2.935,1.072-7.555-4.206-10.321-11.792
			c-2.756-7.583-2.614-14.596,0.331-15.665C201.928,165.826,206.553,171.104,209.315,178.689z"/>
	</g>
	<g>
		<path fill="#B7B67B" d="M189.802,158.488c-6.14,5.239-12.762,7.556-14.796,5.171c-2.025-2.377,1.306-8.547,7.446-13.791
			c6.136-5.235,12.76-7.548,14.791-5.171C199.269,147.074,195.949,153.252,189.802,158.488z"/>
	</g>
	<g>
		<path fill="#B7B67B" d="M182.165,187.211c-7.822-1.984-13.54-6.048-12.769-9.086c0.771-3.03,7.73-3.877,15.562-1.892
			c7.815,1.988,13.531,6.057,12.761,9.082C196.952,188.348,189.987,189.199,182.165,187.211z"/>
	</g>
	<g>
		<path fill="#B7B67B" d="M167.725,174.889c-7.913,1.58-14.825,0.378-15.442-2.694c-0.61-3.065,5.304-6.834,13.223-8.418
			c7.909-1.58,14.821-0.374,15.436,2.69C181.55,169.535,175.64,173.31,167.725,174.889z"/>
	</g>
	<g>
		<path fill="#F2F2C4" d="M173.812,150.295c-4.922,6.392-10.928,10.021-13.408,8.109c-2.474-1.908-0.489-8.635,4.437-15.028
			c4.931-6.388,10.934-10.021,13.41-8.108C180.727,137.179,178.741,143.907,173.812,150.295z"/>
	</g>
	<g>
		<path fill="#F2F2C4" d="M183.279,166.384c-7.455-3.083-12.532-7.93-11.337-10.819c1.198-2.892,8.212-2.736,15.664,0.352
			c7.457,3.079,12.536,7.929,11.342,10.818C197.749,169.623,190.74,169.47,183.279,166.384z"/>
	</g>
	<g>
		<path fill="#F2F2C4" d="M160.04,162.632c-7.457-3.083-12.531-7.93-11.338-10.818c1.199-2.889,8.208-2.737,15.669,0.351
			c7.458,3.08,12.531,7.926,11.338,10.818C174.515,165.872,167.5,165.719,160.04,162.632z"/>
	</g>
	<g>
		<path fill="#F2F2C4" d="M176.682,180.483c-4.926,6.392-10.933,10.024-13.409,8.113c-2.477-1.908-0.493-8.636,4.437-15.028
			c4.928-6.392,10.934-10.021,13.41-8.113C183.592,167.368,181.608,174.096,176.682,180.483z"/>
	</g>
	<g>
		<path fill="#D8D6AA" d="M178.734,157.954c-8.061-0.378-14.478-3.218-14.332-6.347c0.147-3.121,6.804-5.35,14.862-4.972
			c8.061,0.377,14.479,3.221,14.329,6.345C193.446,156.106,186.795,158.335,178.734,157.954z"/>
	</g>
	<g>
		<path fill="#D8D6AA" d="M185.299,179.285c-7.487-3.011-12.612-7.803-11.444-10.704c1.163-2.904,8.181-2.816,15.667,0.187
			c7.487,3.015,12.612,7.804,11.449,10.708C199.804,182.38,192.789,182.296,185.299,179.285z"/>
	</g>
	<g>
		<path fill="#FAFAEE" d="M157.445,152.348c-7.22,3.614-14.203,4.274-15.607,1.473c-1.397-2.796,3.319-7.991,10.536-11.604
			c7.213-3.611,14.202-4.267,15.597-1.469C169.374,143.544,164.657,148.738,157.445,152.348z"/>
	</g>
	<g>
		<path fill="#FAFAEE" d="M207.335,155.5c2.764,7.583,2.614,14.596-0.323,15.668c-2.938,1.068-7.561-4.209-10.323-11.795
			c-2.758-7.583-2.613-14.596,0.325-15.665C199.956,142.636,204.577,147.914,207.335,155.5z"/>
	</g>
	<g>
		<path fill="#B7B67B" d="M228.365,180.953c-7.818-1.984-13.534-6.052-12.769-9.086c0.768-3.03,7.731-3.877,15.558-1.896
			c7.824,1.984,13.54,6.056,12.773,9.086C243.156,182.086,236.189,182.94,228.365,180.953z"/>
	</g>
	<g>
		<path fill="#F2F2C4" d="M220.016,144.037c-4.93,6.391-10.933,10.021-13.413,8.108c-2.472-1.912-0.487-8.64,4.438-15.027
			c4.928-6.392,10.934-10.021,13.409-8.114C226.928,130.921,224.943,137.648,220.016,144.037z"/>
	</g>
	<g>
		<path fill="#F2F2C4" d="M229.479,160.122c-7.456-3.08-12.532-7.93-11.337-10.819c1.197-2.892,8.208-2.732,15.665,0.353
			c7.463,3.083,12.539,7.93,11.34,10.818C243.954,163.365,236.937,163.208,229.479,160.122z"/>
	</g>
	<g>
		<path fill="#F2F2C4" d="M222.879,174.225c-4.928,6.392-10.931,10.021-13.406,8.113c-2.479-1.913-0.492-8.64,4.438-15.032
			c4.926-6.388,10.932-10.021,13.405-8.109C229.797,161.109,227.809,167.837,222.879,174.225z"/>
	</g>
	<g>
		<path fill="#D8D6AA" d="M214.456,150.15c-8.063-0.377-14.478-3.221-14.334-6.346c0.15-3.125,6.801-5.35,14.868-4.973
			c8.056,0.382,14.475,3.222,14.325,6.347C229.167,148.299,222.516,150.532,214.456,150.15z"/>
	</g>
	<g>
		<path fill="#D8D6AA" d="M231.498,173.027c-7.487-3.011-12.611-7.804-11.446-10.708c1.166-2.9,8.181-2.815,15.671,0.195
			c7.49,3.004,12.615,7.796,11.451,10.704C246.007,176.118,238.989,176.034,231.498,173.027z"/>
	</g>
	<g>
		<path fill="#B7B67B" d="M240.051,189.886c-6.14,5.24-12.762,7.556-14.795,5.175c-2.025-2.381,1.297-8.551,7.445-13.794
			c6.137-5.232,12.763-7.548,14.798-5.171C249.529,178.48,246.198,184.65,240.051,189.886z"/>
	</g>
	<g>
		<path fill="#F2F2C4" d="M230.098,186.131c-4.926,6.392-10.929,10.021-13.405,8.109c-2.48-1.908-0.496-8.636,4.435-15.027
			c4.926-6.389,10.937-10.021,13.409-8.109C237.013,173.012,235.028,179.743,230.098,186.131z"/>
	</g>
	<g>
		<path fill="#D8D6AA" d="M226.862,188.329c-8.056-0.377-14.474-3.221-14.325-6.342c0.146-3.125,6.8-5.354,14.858-4.972
			c8.061,0.378,14.479,3.216,14.33,6.342C241.58,186.482,234.925,188.707,226.862,188.329z"/>
	</g>
	<g>
		<path fill="#FAFAEE" d="M216.513,181.178c2.764,7.583,2.613,14.6-0.328,15.668c-2.934,1.072-7.555-4.209-10.318-11.792
			c-2.759-7.582-2.613-14.595,0.325-15.664C209.134,168.322,213.75,173.6,216.513,181.178z"/>
	</g>
	<g>
		<path fill="#F2F2C4" d="M108.856,194.202c-4.928,6.392-10.93,10.025-13.41,8.109c-2.477-1.908-0.492-8.636,4.442-15.027
			c4.927-6.392,10.93-10.021,13.401-8.109C115.771,181.086,113.786,187.814,108.856,194.202z"/>
	</g>
	<g>
		<ellipse fill="#268340" cx="156.834" cy="187.635" rx="11.383" ry="9.929"/>
	</g>
	<g>
		<path fill="#B7B67B" d="M245.642,167.711c-7.923,1.58-14.838,0.374-15.448-2.694c-0.61-3.068,5.297-6.834,13.222-8.417
			c7.915-1.581,14.834-0.375,15.448,2.69C259.477,162.357,253.557,166.127,245.642,167.711z"/>
	</g>
	<g>
		<path fill="#B7B67B" d="M308.707,167.024c6.144,5.235,12.766,7.556,14.8,5.171c2.025-2.378-1.302-8.552-7.446-13.791
			c-6.135-5.236-12.756-7.552-14.789-5.171C299.244,155.61,302.571,161.789,308.707,167.024z"/>
	</g>
	<g>
		<path fill="#F2F2C4" d="M318.66,163.266c4.931,6.391,10.933,10.021,13.41,8.113c2.477-1.912,0.49-8.639-4.438-15.031
			c-4.928-6.388-10.93-10.021-13.406-8.108C311.745,150.15,313.73,156.878,318.66,163.266z"/>
	</g>
	<g>
		<path fill="#F2F2C4" d="M309.193,179.354c7.46-3.083,12.53-7.929,11.337-10.818c-1.195-2.889-8.209-2.736-15.665,0.351
			c-7.456,3.08-12.532,7.93-11.342,10.818C294.727,182.594,301.74,182.441,309.193,179.354z"/>
	</g>
	<g>
		<path fill="#F2F2C4" d="M332.432,175.603c7.458-3.083,12.535-7.93,11.343-10.819c-1.198-2.889-8.208-2.735-15.669,0.352
			c-7.456,3.079-12.531,7.925-11.338,10.818C317.966,178.843,324.976,178.689,332.432,175.603z"/>
	</g>
	<g>
		<path fill="#D8D6AA" d="M321.896,165.468c8.062-0.382,14.479-3.221,14.332-6.347c-0.146-3.125-6.803-5.354-14.862-4.972
			c-8.062,0.377-14.479,3.216-14.329,6.342C307.182,163.617,313.837,165.845,321.896,165.468z"/>
	</g>
	<g>
		<path fill="#D8D6AA" d="M304.232,175.083c8.059-0.381,14.473-3.22,14.328-6.346c-0.148-3.125-6.801-5.354-14.867-4.976
			c-8.057,0.386-14.471,3.22-14.325,6.346C289.52,173.232,296.169,175.462,304.232,175.083z"/>
	</g>
	<g>
		<path fill="#FAFAEE" d="M292.439,166.033c-2.763,7.586-2.617,14.6,0.324,15.668c2.938,1.072,7.563-4.205,10.322-11.792
			c2.762-7.582,2.614-14.596-0.324-15.668C299.823,153.172,295.199,158.45,292.439,166.033z"/>
	</g>
	<g>
		<path fill="#B7B67B" d="M270.967,170.711c6.141,5.235,12.766,7.556,14.797,5.17c2.028-2.377-1.303-8.551-7.443-13.795
			c-6.135-5.232-12.756-7.548-14.79-5.171C261.503,159.296,264.831,165.471,270.967,170.711z"/>
	</g>
	<g>
		<path fill="#F2F2C4" d="M280.919,166.952c4.927,6.392,10.933,10.021,13.41,8.113c2.478-1.909,0.491-8.636-4.435-15.032
			c-4.931-6.388-10.934-10.017-13.41-8.108C274.009,153.833,275.994,160.56,280.919,166.952z"/>
	</g>
	<g>
		<path fill="#F2F2C4" d="M271.456,183.044c7.457-3.087,12.532-7.934,11.337-10.822c-1.197-2.889-8.212-2.737-15.667,0.351
			c-7.458,3.08-12.537,7.925-11.339,10.818C256.98,186.28,263.999,186.127,271.456,183.044z"/>
	</g>
	<g>
		<path fill="#F2F2C4" d="M294.695,179.289c7.454-3.083,12.526-7.93,11.334-10.818c-1.195-2.893-8.208-2.737-15.666,0.351
			c-7.455,3.083-12.534,7.925-11.338,10.813C280.223,182.525,287.236,182.372,294.695,179.289z"/>
	</g>
	<g>
		<path fill="#D8D6AA" d="M284.154,169.154c8.062-0.378,14.481-3.222,14.335-6.346c-0.146-3.125-6.802-5.35-14.867-4.973
			c-8.056,0.377-14.472,3.221-14.326,6.342C269.445,167.307,276.098,169.532,284.154,169.154z"/>
	</g>
	<g>
		<path fill="#D8D6AA" d="M266.486,178.77c8.063-0.382,14.481-3.221,14.334-6.346c-0.146-3.122-6.801-5.354-14.863-4.972
			c-8.061,0.378-14.479,3.217-14.329,6.342C251.773,176.923,258.43,179.147,266.486,178.77z"/>
	</g>
	<g>
		<path fill="#FAFAEE" d="M294.51,162.002c-2.761,7.583-2.619,14.597,0.322,15.668c2.938,1.068,7.562-4.209,10.323-11.795
			c2.758-7.578,2.612-14.592-0.325-15.665C301.892,149.139,297.271,154.42,294.51,162.002z"/>
	</g>
	<g>
		<path fill="#FAFAEE" d="M275.496,174.882c-2.762,7.579-2.613,14.596,0.329,15.668c2.937,1.069,7.557-4.209,10.323-11.794
			c2.754-7.58,2.613-14.593-0.33-15.665C282.881,162.018,278.261,167.299,275.496,174.882z"/>
	</g>
	<g>
		<path fill="#FAFAEE" d="M254.695,169.719c-2.764,7.583-2.613,14.6,0.328,15.672c2.938,1.065,7.561-4.212,10.322-11.794
			c2.76-7.583,2.614-14.597-0.328-15.666C262.08,156.862,257.46,162.14,254.695,169.719z"/>
	</g>
	<g>
		<path fill="#B7B67B" d="M280.248,145.086c6.141,5.235,12.761,7.552,14.794,5.171c2.03-2.377-1.301-8.552-7.444-13.795
			c-6.132-5.232-12.756-7.544-14.785-5.17C270.779,133.677,274.104,139.847,280.248,145.086z"/>
	</g>
	<g>
		<path fill="#B7B67B" d="M281.852,178.251c7.817-1.988,13.535-6.056,12.768-9.089c-0.771-3.03-7.734-3.882-15.561-1.897
			c-7.818,1.984-13.531,6.052-12.767,9.086C267.061,179.381,274.02,180.231,281.852,178.251z"/>
	</g>
	<g>
		<path fill="#B7B67B" d="M296.287,165.925c7.918,1.581,14.826,0.374,15.441-2.698c0.61-3.065-5.304-6.831-13.218-8.415
			c-7.915-1.58-14.825-0.377-15.438,2.69C282.462,160.572,288.377,164.338,296.287,165.925z"/>
	</g>
	<g>
		<path fill="#F2F2C4" d="M337.087,179.045c4.927,6.387,10.93,10.021,13.41,8.104c2.473-1.907,0.491-8.636-4.442-15.027
			c-4.921-6.388-10.933-10.021-13.404-8.109C330.172,165.925,332.157,172.653,337.087,179.045z"/>
	</g>
	<g>
		<path fill="#F2F2C4" d="M280.732,157.416c7.453-3.08,12.533-7.929,11.336-10.818c-1.196-2.889-8.207-2.735-15.664,0.351
			c-7.455,3.083-12.534,7.926-11.34,10.814C266.268,160.655,273.271,160.499,280.732,157.416z"/>
	</g>
	<g>
		<path fill="#F2F2C4" d="M307.913,160.122c7.461-3.08,12.533-7.93,11.338-10.819c-1.193-2.892-8.211-2.732-15.669,0.353
			c-7.455,3.083-12.531,7.93-11.335,10.818C293.443,163.365,300.462,163.208,307.913,160.122z"/>
	</g>
	<g>
		<path fill="#F2F2C4" d="M287.33,171.52c4.927,6.392,10.934,10.021,13.409,8.109c2.477-1.908,0.494-8.64-4.438-15.027
			c-4.926-6.392-10.929-10.021-13.404-8.109C280.417,158.404,282.398,165.132,287.33,171.52z"/>
	</g>
	<g>
		<path fill="#D8D6AA" d="M275.686,146.234c8.059-0.377,14.474-3.22,14.328-6.346c-0.148-3.125-6.801-5.35-14.863-4.972
			c-8.061,0.381-14.471,3.221-14.324,6.346C260.975,144.384,267.621,146.613,275.686,146.234z"/>
	</g>
	<g>
		<path fill="#D8D6AA" d="M278.711,170.317c7.494-3.007,12.615-7.799,11.447-10.704c-1.167-2.904-8.178-2.816-15.67,0.194
			c-7.48,3.003-12.605,7.796-11.446,10.7C264.209,173.413,271.229,173.328,278.711,170.317z"/>
	</g>
	<g>
		<path fill="#FAFAEE" d="M298.141,161.155c7.218,3.606,14.199,4.267,15.605,1.47c1.398-2.797-3.322-7.995-10.537-11.605
			c-7.215-3.614-14.199-4.27-15.596-1.473C286.213,152.344,290.922,157.541,298.141,161.155z"/>
	</g>
	<g>
		<path fill="#FAFAEE" d="M256.677,146.533c-2.764,7.582-2.618,14.596,0.324,15.668c2.938,1.069,7.56-4.209,10.322-11.792
			c2.759-7.582,2.612-14.6-0.324-15.665C264.057,133.672,259.439,138.95,256.677,146.533z"/>
	</g>
	<g>
		<path fill="#B7B67B" d="M235.636,171.989c7.823-1.988,13.543-6.052,12.775-9.09c-0.771-3.03-7.738-3.877-15.565-1.893
			c-7.819,1.984-13.539,6.053-12.769,9.083C220.849,173.122,227.809,173.973,235.636,171.989z"/>
	</g>
	<g>
		<path fill="#F2F2C4" d="M238.718,147.219c4.927,6.392,10.938,10.021,13.423,8.109c2.473-1.908,0.483-8.635-4.442-15.027
			c-4.931-6.388-10.939-10.021-13.421-8.109C231.805,134.1,233.788,140.827,238.718,147.219z"/>
	</g>
	<g>
		<path fill="#F2F2C4" d="M257.771,147.406c7.461-3.083,12.531-7.929,11.338-10.822c-1.194-2.889-8.213-2.736-15.674,0.354
			c-7.462,3.079-12.539,7.926-11.339,10.814C243.29,150.642,250.312,150.49,257.771,147.406z"/>
	</g>
	<g>
		<path fill="#F2F2C4" d="M241.123,165.257c4.93,6.396,10.939,10.025,13.417,8.113s0.491-8.639-4.442-15.028
			c-4.93-6.391-10.939-10.021-13.417-8.112C234.204,152.142,236.189,158.874,241.123,165.257z"/>
	</g>
	<g>
		<path fill="#D8D6AA" d="M237.032,147.444c8.07-0.378,14.487-3.221,14.341-6.346s-6.801-5.35-14.872-4.972
			c-8.06,0.377-14.474,3.22-14.328,6.346C222.321,145.593,228.972,147.822,237.032,147.444z"/>
	</g>
	<g>
		<path fill="#D8D6AA" d="M232.501,164.059c7.488-3.011,12.612-7.804,11.449-10.703c-1.167-2.904-8.182-2.821-15.676,0.19
			c-7.483,3.007-12.608,7.8-11.445,10.7C217.998,167.15,225.011,167.067,232.501,164.059z"/>
	</g>
	<g>
		<path fill="#B7B67B" d="M223.947,180.922c6.14,5.236,12.764,7.556,14.798,5.174c2.027-2.381-1.301-8.556-7.444-13.794
			c-6.137-5.235-12.762-7.549-14.792-5.175C214.479,169.509,217.808,175.687,223.947,180.922z"/>
	</g>
	<g>
		<path fill="#F2F2C4" d="M233.898,177.164c4.931,6.392,10.938,10.024,13.413,8.112c2.484-1.912,0.497-8.639-4.438-15.031
			c-4.93-6.389-10.937-10.021-13.409-8.113C226.984,164.048,228.968,170.775,233.898,177.164z"/>
	</g>
	<g>
		<path fill="#D8D6AA" d="M237.135,179.365c8.063-0.381,14.485-3.22,14.342-6.346c-0.149-3.125-6.809-5.35-14.875-4.973
			c-8.057,0.378-14.475,3.221-14.325,6.343C222.419,177.519,229.076,179.743,237.135,179.365z"/>
	</g>
	<g>
		<path fill="#F2F2C4" d="M355.156,185.238c4.927,6.392,10.933,10.021,13.406,8.109c2.479-1.912,0.49-8.639-4.438-15.027
			c-4.927-6.388-10.93-10.021-13.401-8.109C348.241,172.119,350.227,178.846,355.156,185.238z"/>
	</g>
	<g>
		<path fill="#268340" d="M295.795,178.667c0,5.484,5.098,9.93,11.38,9.93c6.287,0,11.388-4.446,11.388-9.93
			c0-5.483-5.101-9.93-11.388-9.93C300.893,168.737,295.795,173.184,295.795,178.667z"/>
	</g>
	<g>
		<path fill="#F2F2C4" d="M218.96,206.882c-4.927,6.389-10.93,10.021-13.41,8.109c-2.477-1.909-0.492-8.636,4.434-15.027
			c4.927-6.392,10.933-10.021,13.413-8.113C225.87,193.764,223.885,200.491,218.96,206.882z"/>
	</g>
	<g>
		<path fill="#D8D6AA" d="M206.831,217.248c-8.062-0.378-14.477-3.221-14.329-6.347c0.146-3.125,6.797-5.354,14.864-4.972
			c8.056,0.381,14.47,3.217,14.322,6.342C221.543,215.396,214.891,217.625,206.831,217.248z"/>
	</g>
	<g>
		<path fill="#D07A28" d="M159.331,232.763c-1.382,0.069-6.442,1.171-7.221,7.421c-0.782,6.247,6.66,8.59,8.524,10.933
			c1.862,2.343,12.425-7.418,10.658-12.497S167.332,232.374,159.331,232.763z"/>
	</g>
	<g>
		<path fill="#D07A28" d="M349.737,196.755c-7.381,1.007-13.887-9.395-9.104,4.468c4.785,13.868,7.351,16.821,12.777,15.792
			c5.425-1.031,8.951-6.949,8.753-11.593C361.964,200.777,359.831,195.374,349.737,196.755z"/>
	</g>
	<g>
		<path fill="#D07A28" d="M331.413,265.359c0,0-19.24,2.236-8.315,8.052c10.922,5.815,11.94,10.284,13.67,4.473
			C338.491,272.068,343.575,265.359,331.413,265.359z"/>
	</g>
	<g>
		<path fill="#D07A28" d="M259.923,215.136c0.976,3.042,12.019,8.052,17.435,11.181c5.41,3.129,15.899-7.189,8.422-11.196
			C278.291,211.111,257.207,206.638,259.923,215.136z"/>
	</g>
	<g>
		<path fill="#D07A28" d="M188.755,163.3c0.974,3.041,12.021,8.047,17.432,11.18c5.415,3.129,15.902-7.188,8.423-11.2
			C207.125,159.274,186.042,154.798,188.755,163.3z"/>
	</g>
	<g>
		<path fill="#F2F2C4" d="M292.307,227.424c7.457-3.087,12.535-7.93,11.337-10.818c-1.193-2.893-8.208-2.736-15.667,0.347
			c-7.453,3.084-12.527,7.93-11.334,10.823C277.836,230.664,284.852,230.512,292.307,227.424z"/>
	</g>
	<g>
		<path fill="#D8D6AA" d="M281.77,217.285c8.062-0.377,14.477-3.216,14.33-6.341c-0.147-3.125-6.8-5.354-14.861-4.977
			c-8.062,0.381-14.471,3.221-14.326,6.346C267.061,215.438,273.712,217.667,281.77,217.285z"/>
	</g>
	<g>
		<path fill="#268340" d="M260.887,152.653c0,4.671-4.201,8.456-9.393,8.456c-5.188,0-9.391-3.785-9.391-8.456
			c0-4.671,4.202-8.453,9.391-8.453C256.686,144.201,260.887,147.982,260.887,152.653z"/>
	</g>
	<g>
		<path fill="#B7B67B" d="M173.251,253.893c-7.914,1.58-14.828,0.377-15.439-2.694c-0.614-3.068,5.305-6.834,13.219-8.418
			c7.906-1.58,14.821-0.377,15.439,2.69C187.077,248.538,181.166,252.312,173.251,253.893z"/>
	</g>
	<g>
		<path fill="#D8D6AA" d="M354.064,222.494c7.482-3.011,12.607-7.804,11.443-10.708c-1.167-2.899-8.186-2.816-15.676,0.194
			c-7.483,3.008-12.608,7.8-11.438,10.7C339.561,225.584,346.574,225.501,354.064,222.494z"/>
	</g>
	<g>
		<path fill="#D8D6AA" d="M351.405,199.193c8.053-0.275,14.446-2.69,14.277-5.396c-0.158-2.702-6.825-4.671-14.884-4.392
			c-8.057,0.274-14.45,2.693-14.284,5.392C336.682,197.503,343.349,199.472,351.405,199.193z"/>
	</g>
	<g>
		<path fill="#FAFAEE" d="M321.61,264.02c-6.312-5.025-13.014-7.117-14.959-4.666c-1.95,2.448,1.59,8.504,7.905,13.531
			c6.312,5.025,13.01,7.112,14.95,4.663C331.458,275.102,327.925,269.042,321.61,264.02z"/>
	</g>
	<g>
		<path fill="#B7B67B" d="M209.549,164.998c-7.91,1.576-14.82,0.374-15.437-2.694c-0.614-3.068,5.301-6.834,13.22-8.418
			c7.91-1.583,14.821-0.378,15.437,2.69C223.386,159.644,217.467,163.415,209.549,164.998z"/>
	</g>
	<g>
		<path fill="#F2F2C4" d="M206.236,156.37c-7.451-3.083-12.528-7.926-11.33-10.819c1.195-2.888,8.21-2.732,15.665,0.352
			c7.457,3.083,12.531,7.93,11.338,10.822C220.714,159.614,213.697,159.461,206.236,156.37z"/>
	</g>
	<g>
		<path fill="#B7B67B" d="M263.777,161.419c7.914,1.579,14.826,0.374,15.443-2.694c0.61-3.068-5.305-6.834-13.223-8.418
			c-7.911-1.584-14.83-0.378-15.443,2.69C249.95,156.065,255.863,159.835,263.777,161.419z"/>
	</g>
</g>
</svg>
